<?xml version="1.0" encoding="UTF-8" standalone="no"?>
<svg
   viewBox="0 0 80 80"
   version="1.1"
   id="svg68"
   sodipodi:docname="drive_left_angle.svg"
   inkscape:version="1.1.2 (b8e25be833, 2022-02-05)"
   inkscape:export-filename="C:\Users\Microbric\Pictures\drive_left_angle2.png"
   inkscape:export-xdpi="96"
   inkscape:export-ydpi="96"
   xmlns:inkscape="http://www.inkscape.org/namespaces/inkscape"
   xmlns:sodipodi="http://sodipodi.sourceforge.net/DTD/sodipodi-0.dtd"
   xmlns="http://www.w3.org/2000/svg"
   xmlns:svg="http://www.w3.org/2000/svg"
   xmlns:rdf="http://www.w3.org/1999/02/22-rdf-syntax-ns#"
   xmlns:cc="http://creativecommons.org/ns#"
   xmlns:dc="http://purl.org/dc/elements/1.1/">
  <sodipodi:namedview
     id="namedview70"
     pagecolor="#ffffff"
     bordercolor="#666666"
     borderopacity="1.0"
     inkscape:pageshadow="2"
     inkscape:pageopacity="0.0"
     inkscape:pagecheckerboard="0"
     showgrid="false"
     inkscape:zoom="5.19375"
     inkscape:cx="20.120337"
     inkscape:cy="48.134777"
     inkscape:window-width="1920"
     inkscape:window-height="1017"
     inkscape:window-x="-8"
     inkscape:window-y="-8"
     inkscape:window-maximized="1"
     inkscape:current-layer="Layer_2" />
  <defs
     id="defs4">
    <style
       id="style2">.cls-1{fill:#4c97ff;}.cls-2{fill:#f7941d;}.cls-3{fill:#f4bd82;}.cls-4{fill:#d87d21;}.cls-5{fill:#6d6e71;}.cls-12,.cls-6{fill:#58595b;}.cls-7{fill:#bcbec0;}.cls-8{fill:#939598;}.cls-10,.cls-9{fill:none;stroke-miterlimit:10;}.cls-9{stroke:#939598;}.cls-10,.cls-11,.cls-12{stroke:#58595b;}.cls-10{stroke-width:1.5px;}.cls-11,.cls-14{fill:#fff;}.cls-11,.cls-12{stroke-linecap:round;stroke-linejoin:round;}.cls-11{stroke-width:1.8px;}.cls-12{stroke-width:0.83px;}.cls-13{fill:#3373cc;}</style>
  </defs>
  <title
     id="title6">drive_left_time</title>
  <g
     id="Layer_2"
     data-name="Layer 2">
    <g
       id="Work_area_squares-8"
       data-name="Work area squares"
       transform="translate(0.19823908,-0.13662739)"
       inkscape:export-filename="C:\Users\Microbric\Pictures\AngleLeft.png"
       inkscape:export-xdpi="96"
       inkscape:export-ydpi="96">
      <rect
         class="cls-1"
         width="80"
         height="80"
         id="rect8-4"
         x="0"
         y="0" />
    </g>
    <g
       id="Edison_Icons-9"
       data-name="Edison Icons"
       transform="translate(0.19823908,-0.13662739)"
       inkscape:export-filename="C:\Users\Microbric\Pictures\AngleLeft.png"
       inkscape:export-xdpi="96"
       inkscape:export-ydpi="96">
      <path
         id="rect4136-0"
         class="cls-2"
         d="m 40,15.47 c -11.88,0 -21.51,2.81 -21.51,6.27 v 0 c 0,0.25 0,45.48 0,45.48 h 43 c 0,0 0,-45.23 0,-45.48 0,-3.46 -9.63,-6.27 -21.51,-6.27 z" />
      <path
         class="cls-3"
         d="m 40,21.8 v 0 c 11.86,0 21.48,2.8 21.5,6.26 0,-4.41 0,-7.39 0,-7.45 0,-3.46 -9.63,-6.27 -21.51,-6.27 v 0 c -11.88,0 -21.51,2.81 -21.51,6.27 v 0 c 0,0.06 0,3 0,7.45 C 18.54,24.59 28.15,21.8 40,21.8 Z"
         id="path12-5" />
      <path
         class="cls-4"
         d="M 45.17,46.17 42,40.71 a 2.25,2.25 0 0 0 -3.88,0 l -3.23,5.55 c -0.31,0.52 -0.6,1 -0.6,3.28 v 9.26 a 5.735,5.735 0 0 0 11.47,0 v -9.26 c -0.03,-2.41 -0.23,-2.76 -0.59,-3.37 z"
         id="path14-6" />
      <path
         class="cls-5"
         d="m 40,54 a 4.76,4.76 0 0 1 3.3,1.33 0.4,0.4 0 0 0 0.68,-0.28 v -5.51 a 1,1 0 0 0 -1,-1 H 37 a 1,1 0 0 0 -1,1 v 5.54 A 0.39,0.39 0 0 0 36.67,55.36 4.76,4.76 0 0 1 40,54 Z"
         id="path16-0" />
      <path
         class="cls-5"
         d="M 40.49,41.59 43.67,47 a 0.5,0.5 0 0 1 -0.43,0.75 H 36.88 A 0.5,0.5 0 0 1 36.45,47 l 3.18,-5.46 a 0.5,0.5 0 0 1 0.86,0.05 z"
         id="path18-9" />
      <circle
         class="cls-5"
         cx="40.009998"
         cy="58.799999"
         r="3.98"
         id="circle20-8" />
      <path
         class="cls-6"
         d="m 15,44 c -2,0 -3.46,1.63 -3.46,3.89 v 19.27 a 3.35,3.35 0 0 0 3.46,3.61 3.35,3.35 0 0 0 3.46,-3.6 V 47.89 C 18.49,45.64 17,44 15,44 Z"
         id="path22-9" />
      <path
         id="rect4142-25"
         class="cls-7"
         d="m 15,45 v 0 a 2.6,2.6 0 0 1 2.46,2.89 V 67.16 A 2.35,2.35 0 0 1 15,69.77 v 0 a 2.35,2.35 0 0 1 -2.46,-2.6 V 47.89 A 2.6,2.6 0 0 1 15,45 Z" />
      <path
         class="cls-8"
         d="m 15,45 a 2.6,2.6 0 0 0 -2.46,2.89 V 67.16 A 2.35,2.35 0 0 0 15,69.77 Z"
         id="path25-1" />
      <path
         class="cls-6"
         d="m 15,70.27 a 2.85,2.85 0 0 1 -3,-3.1 V 47.89 a 3.09,3.09 0 0 1 3,-3.39 3.09,3.09 0 0 1 3,3.39 v 19.27 a 2.85,2.85 0 0 1 -3,3.11 z M 15,45.5 c -1.16,0 -2,1 -2,2.39 v 19.27 a 1.85,1.85 0 0 0 2,2.1 1.85,1.85 0 0 0 2,-2.1 V 47.89 C 17,46.48 16.19,45.5 15,45.5 Z"
         id="path27-9" />
      <path
         class="cls-6"
         d="m 65,44 c -2,0 -3.46,1.63 -3.46,3.89 v 19.27 a 3.47,3.47 0 1 0 6.93,0 V 47.89 C 68.43,45.64 67,44 65,44 Z"
         id="path29-9" />
      <path
         id="rect4142-2-0"
         data-name="rect4142"
         class="cls-7"
         d="m 65,45 v 0 a 2.6,2.6 0 0 1 2.46,2.89 V 67.16 A 2.35,2.35 0 0 1 65,69.77 v 0 a 2.35,2.35 0 0 1 -2.46,-2.6 V 47.89 A 2.6,2.6 0 0 1 65,45 Z" />
      <path
         class="cls-8"
         d="m 65,45 a 2.6,2.6 0 0 0 -2.46,2.89 V 67.16 A 2.35,2.35 0 0 0 65,69.77 Z"
         id="path32-1" />
      <path
         class="cls-6"
         d="m 65,70.27 a 2.85,2.85 0 0 1 -3,-3.1 V 47.89 a 3,3 0 1 1 5.93,0 V 67.16 A 2.85,2.85 0 0 1 65,70.27 Z M 65,45.5 c -1.16,0 -2,1 -2,2.39 v 19.27 a 2,2 0 1 0 3.93,0 V 47.89 c 0,-1.41 -0.8,-2.39 -1.93,-2.39 z"
         id="path34-9" />
      <path
         class="cls-5"
         d="M 56.41,23.83 H 55.8 l -2.55,-0.67 a 3.25,3.25 0 0 0 -1.94,4.6 h -7.08 v -4.07 c 0,0 2.39,-2.76 2.46,-5.5 a 24.68,24.68 0 0 0 -0.05,-3.86 c 0,0 -4.29,-0.31 -7,-0.31 -2.71,0 -6.16,0.31 -6.16,0.31 a 30.49,30.49 0 0 0 -0.12,3.86 c 0,2.7 2.46,5.5 2.46,5.5 v 4.09 h -7.09 a 3.25,3.25 0 0 0 -1.94,-4.6 l -2.55,0.67 h -0.61 a 3.28,3.28 0 0 0 2.17,5.75 h 28.44 a 3.28,3.28 0 0 0 2.17,-5.75 z"
         id="path36-4" />
      <circle
         class="cls-9"
         cx="26.059999"
         cy="26.309999"
         r="1.38"
         id="circle38-3" />
      <circle
         class="cls-9"
         cx="53.990002"
         cy="26.309999"
         r="1.38"
         id="circle40-6" />
      <path
         id="rect4136-2-6"
         data-name="rect4136"
         class="cls-10"
         d="m 40,14.33 c -11.88,0 -21.51,2.81 -21.51,6.27 v 0 c 0,0.25 0,47.21 0,47.21 h 43 c 0,0 0,-47 0,-47.21 0,-3.46 -9.63,-6.27 -21.51,-6.27 z" />
      <circle
         class="cls-9"
         cx="39.639999"
         cy="17.82"
         r="1.38"
         id="circle43-9" />
      <circle
         class="cls-2"
         cx="26.370001"
         cy="19.620001"
         r="1.7"
         transform="rotate(-45,26.366334,19.618707)"
         id="circle45-3" />
      <circle
         class="cls-2"
         cx="30.65"
         cy="18.889999"
         r="1.7"
         transform="rotate(-45,30.655376,18.892128)"
         id="circle47-2" />
      <circle
         class="cls-2"
         cx="22.57"
         cy="21.16"
         r="1.7"
         transform="rotate(-45,22.574486,21.159342)"
         id="circle49-5" />
      <circle
         class="cls-2"
         cx="53.720001"
         cy="19.620001"
         r="1.7"
         transform="rotate(-45,53.71678,19.619781)"
         id="circle51-9" />
      <circle
         class="cls-2"
         cx="49.439999"
         cy="18.889999"
         r="1.7"
         transform="rotate(-45,49.435754,18.89304)"
         id="circle53-8" />
      <circle
         class="cls-2"
         cx="57.52"
         cy="21.16"
         r="1.7"
         transform="rotate(-45,57.522095,21.153568)"
         id="circle55-2" />
    </g>
    <g
       id="Control_icons-2"
       data-name="Control icons"
       transform="translate(0.19823908,2.3928556)"
       inkscape:export-filename="C:\Users\Microbric\Pictures\AngleLeft.png"
       inkscape:export-xdpi="96"
       inkscape:export-ydpi="96">
      <path
         style="fill:none;stroke:#58595b;stroke-width:1px;stroke-linecap:butt;stroke-linejoin:miter;stroke-opacity:1"
         d="m 62,52.348026 v 4.322626"
         id="path1099-6" />
      <path
         style="fill:none;stroke:#58595b;stroke-width:1px;stroke-linecap:butt;stroke-linejoin:miter;stroke-opacity:1"
         d="M 73.651974,64 H 69.329348"
         id="path1099-8-7" />
      <path
         style="fill:none;stroke:#58595b;stroke-width:1px;stroke-linecap:butt;stroke-linejoin:miter;stroke-opacity:1"
         d="m 50.348026,64 h 4.322626"
         id="path1099-3-0-4" />
      <path
         style="fill:none;stroke:#58595b;stroke-width:1px;stroke-linecap:butt;stroke-linejoin:miter;stroke-opacity:1"
         d="m 70.23919,55.76081 -3.056558,3.056558"
         id="path1099-4-9" />
      <path
         style="fill:#939598;fill-opacity:1;stroke:none;stroke-width:1px;stroke-linecap:butt;stroke-linejoin:miter;stroke-opacity:1"
         d="m 61.506472,52.313989 -0.01987,12.179539 12.284502,-0.01702 C 72.644554,54.28979 67.016673,52.480929 61.506472,52.313989 Z"
         id="path2665-4"
         sodipodi:nodetypes="cccc" />
      <path
         id="path4170-2-079"
         style="fill:#ffffff;fill-opacity:1;stroke:#58595b;stroke-width:1.8px;stroke-linecap:round;stroke-linejoin:round"
         class="cls-11"
         d="m 74,64 c -12.51341,0 -12.513285,0 -24,0 0,-6.627417 5.372583,-12 12,-12 6.627417,0 12,5.372583 12,12 z"
         sodipodi:nodetypes="ccsc" />
      <rect
         style="fill:#ffffff;fill-opacity:1;stroke:#58595b;stroke-width:1.8;stroke-linecap:round;stroke-miterlimit:4;stroke-dasharray:none;stroke-opacity:1"
         id="rect10616-9"
         width="26.59152"
         height="3.6919627"
         x="48.704243"
         y="64.015366"
         ry="0.41522524" />
      <path
         id="path4170-2-0-3"
         style="fill:none;fill-opacity:1;stroke:#58595b;stroke-width:1;stroke-linecap:round;stroke-linejoin:round;stroke-miterlimit:4;stroke-dasharray:none"
         class="cls-11"
         d="m 68.391252,64.179996 c -6.664696,0 -6.66463,0 -12.782504,0 0,-3.529791 2.861461,-6.391252 6.391252,-6.391252 3.529791,0 6.391252,2.861461 6.391252,6.391252 z"
         sodipodi:nodetypes="ccsc" />
      <path
         style="fill:none;stroke:#58595b;stroke-width:1;stroke-linecap:round;stroke-linejoin:miter;stroke-miterlimit:4;stroke-dasharray:none;stroke-opacity:1"
         d="m 62,52.275605 v 3.426021"
         id="path1099-40-1" />
      <path
         style="fill:none;stroke:#58595b;stroke-width:1px;stroke-linecap:butt;stroke-linejoin:miter;stroke-opacity:1"
         d="M 73.651974,64 H 69.329348"
         id="path1099-8-8-4" />
      <path
         style="fill:none;stroke:#58595b;stroke-width:1;stroke-linecap:round;stroke-linejoin:miter;stroke-miterlimit:4;stroke-dasharray:none;stroke-opacity:1"
         d="m 70.370178,55.629822 -2.089387,2.089387"
         id="path1099-4-1-25" />
      <path
         style="fill:none;stroke:#58595b;stroke-width:1;stroke-linecap:round;stroke-linejoin:miter;stroke-miterlimit:4;stroke-dasharray:none;stroke-opacity:1"
         d="m 53.660166,55.660166 2.226368,2.226368"
         id="path1099-3-0-8-20" />
    </g>
    <g
       id="Direction_Arrows-5"
       data-name="Direction Arrows"
       transform="translate(0.19823908,-0.13662739)"
       inkscape:export-filename="C:\Users\Microbric\Pictures\AngleLeft.png"
       inkscape:export-xdpi="96"
       inkscape:export-ydpi="96">
      <path
         class="cls-13"
         d="m 16,37 v 0 H 15.52 V 32.1 A 1.56,1.56 0 0 0 12.86,31 L 3,40.86 a 1.56,1.56 0 0 0 0,2.2 l 9.9,9.9 a 1.56,1.56 0 0 0 2.66,-1.1 L 15.58,47 H 16 A 19,19 0 0 1 35,66 5,5 0 0 0 45,66 29,29 0 0 0 16,37 Z"
         id="path62-5" />
      <path
         class="cls-14"
         d="M 40,69.46 A 3.5,3.5 0 0 1 36.5,65.96 20.52,20.52 0 0 0 16,45.46 H 15.07 A 1.06,1.06 0 0 0 14,46.52 v 5.34 H 13.9 L 4,42 13.92,32 h 0.1 v 5.4 a 1.06,1.06 0 0 0 1.06,1.06 H 16 A 27.53,27.53 0 0 1 43.52,66 3.5,3.5 0 0 1 40,69.46 Z"
         id="path64-3" />
    </g>
    <g
       id="Control_icons-4"
       data-name="Control icons"
       transform="translate(28.933129,-56.351383)"
       inkscape:export-filename="C:\Users\Microbric\Pictures\AngleLeft.png"
       inkscape:export-xdpi="96"
       inkscape:export-ydpi="96">
      <g
         id="g16811"
         transform="translate(-28.734402,58.744825)">
        <path
           style="fill:none;stroke:#58595b;stroke-width:1px;stroke-linecap:butt;stroke-linejoin:miter;stroke-opacity:1"
           d="m 62,52.348026 v 4.322626"
           id="path1099-0" />
        <path
           style="fill:none;stroke:#58595b;stroke-width:1px;stroke-linecap:butt;stroke-linejoin:miter;stroke-opacity:1"
           d="M 73.651974,64 H 69.329348"
           id="path1099-8-0" />
        <path
           style="fill:none;stroke:#58595b;stroke-width:1px;stroke-linecap:butt;stroke-linejoin:miter;stroke-opacity:1"
           d="m 50.348026,64 h 4.322626"
           id="path1099-3-0-0" />
        <path
           style="fill:none;stroke:#58595b;stroke-width:1px;stroke-linecap:butt;stroke-linejoin:miter;stroke-opacity:1"
           d="m 70.23919,55.76081 -3.056558,3.056558"
           id="path1099-4-4" />
        <path
           style="fill:#939598;fill-opacity:1;stroke:none;stroke-width:1px;stroke-linecap:butt;stroke-linejoin:miter;stroke-opacity:1"
           d="m 61.506472,52.313989 -0.01987,12.179539 12.284502,-0.01702 C 72.644554,54.28979 67.016673,52.480929 61.506472,52.313989 Z"
           id="path2665-2"
           sodipodi:nodetypes="cccc" />
        <path
           id="path4170-2-07"
           style="fill:#ffffff;fill-opacity:1;stroke:#58595b;stroke-width:1.8px;stroke-linecap:round;stroke-linejoin:round"
           class="cls-11"
           d="m 111.39453,64.798389 c 0,-6.627416 -5.37258,-11.759327 -11.999999,-11.759327 -6.627417,0 -11.652463,5.13235 -11.652463,11.759766 m -0.963655,0.08739 c -0.230035,-10e-7 -0.680757,0.354452 -0.680757,0.584487 v 2.861328 c 0,0.230035 0.185981,0.414063 0.416016,0.414063 h 25.761718 c 0.23004,0 0.41406,-0.184028 0.41406,-0.414063 v -2.861328 c 0,-0.230035 -0.51124,-0.764289 -0.65473,-0.584487"
           transform="translate(-37.394042,-1.0395009)"
           sodipodi:nodetypes="csccssssssc" />
        <path
           id="path4170-2-0-7"
           style="fill:none;fill-opacity:1;stroke:#58595b;stroke-width:1;stroke-linecap:round;stroke-linejoin:round;stroke-miterlimit:4;stroke-dasharray:none"
           class="cls-11"
           d="m 68.391252,64.179996 c -6.664696,0 -6.66463,0 -12.782504,0 0,-3.529791 2.861461,-6.391252 6.391252,-6.391252 3.529791,0 6.391252,2.861461 6.391252,6.391252 z"
           sodipodi:nodetypes="ccsc" />
        <path
           style="fill:none;stroke:#58595b;stroke-width:1;stroke-linecap:round;stroke-linejoin:miter;stroke-miterlimit:4;stroke-dasharray:none;stroke-opacity:1"
           d="m 62,52.275605 v 3.426021"
           id="path1099-40-6" />
        <path
           style="fill:none;stroke:#58595b;stroke-width:1;stroke-linecap:round;stroke-linejoin:miter;stroke-miterlimit:4;stroke-dasharray:none;stroke-opacity:1"
           d="m 70.370178,55.629822 -2.089387,2.089387"
           id="path1099-4-1-2" />
        <path
           style="fill:none;stroke:#58595b;stroke-width:1;stroke-linecap:round;stroke-linejoin:miter;stroke-miterlimit:4;stroke-dasharray:none;stroke-opacity:1"
           d="m 53.660166,55.660166 2.226368,2.226368"
           id="path1099-3-0-8-2" />
        <path
           style="fill:#58595b;fill-opacity:1;stroke:#58595b;stroke-width:1;stroke-linecap:butt;stroke-linejoin:miter;stroke-miterlimit:4;stroke-dasharray:none;stroke-opacity:1"
           d="M 48.255725,64.198009 H 75.738596"
           id="path13019" />
      </g>
    </g>
  </g>
  <metadata
     id="metadata4353">
    <rdf:RDF>
      <cc:Work
         rdf:about="">
        <dc:title>drive_left_time</dc:title>
      </cc:Work>
    </rdf:RDF>
  </metadata>
</svg>
