<?xml version="1.0" encoding="UTF-8" standalone="no"?>
<svg
   xmlns:dc="http://purl.org/dc/elements/1.1/"
   xmlns:cc="http://creativecommons.org/ns#"
   xmlns:rdf="http://www.w3.org/1999/02/22-rdf-syntax-ns#"
   xmlns:svg="http://www.w3.org/2000/svg"
   xmlns="http://www.w3.org/2000/svg"
   xmlns:sodipodi="http://sodipodi.sourceforge.net/DTD/sodipodi-0.dtd"
   xmlns:inkscape="http://www.inkscape.org/namespaces/inkscape"
   viewBox="0 0 80 80"
   version="1.1"
   id="svg21"
   sodipodi:docname="light_sound_play_beep.svg"
   inkscape:version="0.92.1 r15371">
  <metadata
     id="metadata25">
    <rdf:RDF>
      <cc:Work
         rdf:about="">
        <dc:format>image/svg+xml</dc:format>
        <dc:type
           rdf:resource="http://purl.org/dc/dcmitype/StillImage" />
      </cc:Work>
    </rdf:RDF>
  </metadata>
  <sodipodi:namedview
     pagecolor="#ffffff"
     bordercolor="#666666"
     borderopacity="1"
     objecttolerance="10"
     gridtolerance="10"
     guidetolerance="10"
     inkscape:pageopacity="0"
     inkscape:pageshadow="2"
     inkscape:window-width="716"
     inkscape:window-height="480"
     id="namedview23"
     showgrid="false"
     inkscape:zoom="2.95"
     inkscape:cx="40"
     inkscape:cy="40"
     inkscape:window-x="250"
     inkscape:window-y="250"
     inkscape:window-maximized="0"
     inkscape:current-layer="Work_area_squares" />
  <defs
     id="defs4">
    <style
       id="style2">.cls-1{fill:#96f;}.cls-2{fill:#666;stroke:#414042;stroke-width:1.5px;}.cls-3{fill:none;stroke:#fff;stroke-linecap:round;stroke-width:2px;}</style>
  </defs>
  <title
     id="title6">light_sound_play_beep</title>
  <g
     id="Layer_2"
     data-name="Layer 2">
    <g
       id="Work_area_squares"
       data-name="Work area squares">
      <rect
         class="cls-1"
         width="80"
         height="80"
         id="rect8"
         style="fill:#9966ff;fill-opacity:0.01104972" />
    </g>
    <g
       id="Edison_Icons"
       data-name="Edison Icons">
      <path
         class="cls-2"
         d="M44.05,48.35a5.22,5.22,0,0,0-.52-.63c.57,0,1.1,0,1.58.07A31.21,31.21,0,0,1,53.84,50a2.65,2.65,0,0,0,2.56,0c.92-.64,1.14-1.69,0-3.57L48.32,35.27,40.7,24.06c-1.37-1.74-2.43-1.88-3.35-1.24a2.65,2.65,0,0,0-.87,2.41,31.21,31.21,0,0,1-.9,9A24.17,24.17,0,0,1,26,47.29c-6,4.23-13,9.16-14.15,9.9a6.3,6.3,0,0,1-5.57.29,1.72,1.72,0,0,0-1.51.17c-.92.64-.91,2.24,0,3.57l2.05,2.93.13.19,2.19,3.12c.93,1.33,2.43,1.88,3.35,1.24a1.72,1.72,0,0,0,.68-1.36,6.3,6.3,0,0,1,2.17-5.13c.39-.29,1.51-1.09,3.07-2.18a6.72,6.72,0,0,0,.62,5.81c2.8,4,10.66,3.32,17.56-1.51S46.85,52.35,44.05,48.35Zm-22,15.38c-1.61-2.3,1.32-7.14,6.55-10.8S39.42,48.17,41,50.47s-1.32,7.14-6.55,10.8S23.7,66,22.09,63.73Z"
         id="path11" />
      <line
         class="cls-3"
         x1="52.33"
         y1="32.84"
         x2="74.19"
         y2="17.53"
         id="line13" />
      <line
         class="cls-3"
         x1="49.95"
         y1="29.44"
         x2="60.61"
         y2="10.83"
         id="line15" />
      <line
         class="cls-3"
         x1="54.71"
         y1="36.24"
         x2="75.85"
         y2="32.58"
         id="line17" />
    </g>
  </g>
</svg>
