<?xml version="1.0" encoding="utf-8"?>
<svg xmlns="http://www.w3.org/2000/svg" viewBox="43.2281 35.0462 374.15 374.15" width="374.15px" height="374.15px"><g id="object-1" transform="matrix(1, 0, 0, 1, 7.105427357601002e-15, 1.4210854715202004e-14)"><g id="object-0" transform="matrix(1, 0, 0, 1, -14.121957, -6.739777)"><ellipse style="paint-order: fill; stroke-opacity: 0; stroke-width: 0px; fill: rgb(119, 77, 203);" cx="244.425" cy="228.861" rx="187.075" ry="187.075"/></g><g id="dsmIcon" transform="matrix(8.443692, 0, 0, 8.443692, -3118.238281, -2527.391113)" style=""><g id="Icons/Essential/adorner-random" stroke-width="1" fill-rule="nonzero" transform="matrix(1, 0, 0, 1, 372.153137, 299.181)"><path d="M 22.072 28.822 L 17.935 30.247 C 16.682 30.678 15.316 30.012 14.885 28.759 L 10.976 17.414 C 10.545 16.161 11.211 14.795 12.464 14.364 L 23.811 10.456 C 25.064 10.025 26.429 10.691 26.861 11.944 L 29.756 20.351 L 36.472 20.352 C 37.797 20.352 38.872 21.426 38.872 22.752 L 38.872 34.752 C 38.872 36.077 37.797 37.152 36.472 37.152 L 24.472 37.152 C 23.146 37.152 22.072 36.077 22.072 34.752 L 22.071 28.823 L 22.072 28.822 Z" id="Path" style="fill: rgb(119, 77, 203);"/><path d="M 36.473 21.551 L 36.613 21.559 C 37.171 21.624 37.61 22.069 37.667 22.629 L 37.673 22.751 L 37.673 34.751 L 37.665 34.891 C 37.599 35.449 37.154 35.888 36.595 35.945 L 36.473 35.951 L 24.473 35.951 L 24.333 35.943 C 23.774 35.877 23.336 35.432 23.279 34.873 L 23.273 34.751 L 23.273 22.751 L 23.281 22.611 C 23.346 22.052 23.791 21.614 24.351 21.557 L 24.473 21.551 L 36.473 21.551 Z" id="Shape" fill="#FFF"/><path d="M 33.773 23.951 C 32.618 23.951 31.896 25.201 32.474 26.201 C 32.742 26.665 33.237 26.951 33.773 26.951 C 34.927 26.951 35.649 25.701 35.072 24.701 C 34.804 24.237 34.309 23.951 33.773 23.951 Z" id="Shape" style="fill: rgb(119, 77, 203);"/><path d="M 27.173 23.951 C 26.018 23.951 25.296 25.201 25.874 26.201 C 26.142 26.665 26.637 26.951 27.173 26.951 C 28.327 26.951 29.049 25.701 28.472 24.701 C 28.204 24.237 27.709 23.951 27.173 23.951 Z" id="Shape" style="fill: rgb(119, 77, 203);"/><path d="M 33.773 30.551 C 32.618 30.551 31.896 31.801 32.474 32.801 C 32.742 33.265 33.237 33.551 33.773 33.551 C 34.927 33.551 35.649 32.301 35.072 31.301 C 34.804 30.837 34.309 30.551 33.773 30.551 Z" id="Shape" style="fill: rgb(119, 77, 203);"/><path d="M 27.173 30.551 C 26.018 30.551 25.296 31.801 25.874 32.801 C 26.142 33.265 26.637 33.551 27.173 33.551 C 28.327 33.551 29.049 32.301 28.472 31.301 C 28.204 30.837 27.709 30.551 27.173 30.551 Z" id="Shape" style="fill: rgb(119, 77, 203);"/><path d="M 25.674 12.204 L 25.727 12.334 L 28.487 20.35 L 24.473 20.351 C 23.217 20.351 22.173 21.319 22.08 22.572 L 22.073 22.752 L 22.073 27.552 L 17.544 29.112 L 17.409 29.15 C 16.866 29.268 16.313 28.998 16.072 28.498 L 16.019 28.368 L 12.112 17.022 L 12.074 16.887 C 11.955 16.344 12.225 15.791 12.725999999999999 15.55 L 12.856 15.497 L 24.202 11.59 L 24.337 11.552 C 24.88 11.433 25.433 11.703 25.674 12.204 Z" id="Shape" fill="#FFF"/><path d="M 22.431 14.738 C 21.339 15.113 21.063 16.53 21.934 17.288 C 22.339 17.64 22.9 17.749 23.407 17.575 C 24.499 17.199 24.775 15.782 23.903 15.024 C 23.499 14.673 22.938 14.563 22.431 14.738 Z" id="Shape" style="fill: rgb(119, 77, 203);"/><path d="M 18.339 23.127 C 17.247 23.503 16.971 24.92 17.843 25.678 C 18.248 26.029 18.809 26.138 19.316 25.964 C 20.408 25.588 20.683 24.171 19.811 23.413 C 19.407 23.061 18.846 22.952 18.339 23.127 Z" id="Shape" style="fill: rgb(119, 77, 203);"/></g></g></g></svg>