<svg xmlns="http://www.w3.org/2000/svg" viewBox="0 0 80 80"><defs><style>.cls-1{fill:transparent;}.cls-2,.cls-4{fill:#fff;}.cls-2,.cls-3,.cls-6,.cls-7{stroke:#58595b;}.cls-2,.cls-3{stroke-linecap:round;stroke-linejoin:round;stroke-width:2px;}.cls-3,.cls-8{fill:#58595b;}.cls-5{fill:#a7a9ac;}.cls-6{fill:#ad7118;}.cls-6,.cls-7{stroke-miterlimit:10;stroke-width:1.2px;}.cls-7{fill:none;}</style></defs><title>control_wait_time</title><g id="Layer_2" data-name="Layer 2"><g id="Work_area_squares" data-name="Work area squares"><rect class="cls-1" width="80" height="80"/></g><g id="Control_icons" data-name="Control icons"><circle id="path4170" class="cls-2" cx="38.01" cy="39.38" r="24"/><polygon class="cls-3" points="24.67 32.76 38.31 42.87 54.08 31.34 38.08 40.58 24.67 32.76"/><path class="cls-4" d="M23.81,74.6a16.22,16.22,0,0,0-1.2-5.75c-1.4-2.73-4.24-4.61-4.8-5.18s-1.57-1.19-1.59-1.9,1-1.34,1.59-1.9,3.4-2.45,4.8-5.18a16.22,16.22,0,0,0,1.2-5.75H6.11a16.22,16.22,0,0,0,1.2,5.75c1.4,2.73,4.24,4.61,4.8,5.18s1.61,1.19,1.59,1.9-1,1.34-1.59,1.9-3.4,2.45-4.8,5.18a16.22,16.22,0,0,0-1.2,5.75Z"/><polygon class="cls-5" points="14.89 67.25 6.7 72.13 6.11 74.6 23.81 74.6 22.96 72.13 14.89 67.25"/><polygon class="cls-5" points="15.01 62.61 20.83 57.26 9.1 57.26 15.01 62.61"/><path class="cls-6" d="M26.52,48.95H3.5a1.6,1.6,0,0,1,0-3.2h23a1.6,1.6,0,0,1,0,3.2Z"/><path class="cls-6" d="M26.52,77.8H3.5a1.6,1.6,0,0,1,0-3.2h23a1.6,1.6,0,1,1,0,3.2Z"/><path class="cls-7" d="M23.81,74.6a16.22,16.22,0,0,0-1.2-5.75c-1.4-2.73-4.24-4.61-4.8-5.18s-1.57-1.19-1.59-1.9,1-1.34,1.59-1.9,3.4-2.45,4.8-5.18a16.22,16.22,0,0,0,1.2-5.75H6.11a16.22,16.22,0,0,0,1.2,5.75c1.4,2.73,4.24,4.61,4.8,5.18s1.61,1.19,1.59,1.9-1,1.34-1.59,1.9-3.4,2.45-4.8,5.18a16.22,16.22,0,0,0-1.2,5.75Z"/></g></g></svg>