<svg xmlns="http://www.w3.org/2000/svg" viewBox="0 0 80 80"><defs><style>.cls-1{fill:#4c97ff;}.cls-2{fill:#f7941d;}.cls-3{fill:#f4bd82;}.cls-4{fill:#d87d21;}.cls-5{fill:#6d6e71;}.cls-6{fill:#58595b;}.cls-7{fill:#bcbec0;}.cls-8{fill:#939598;}.cls-10,.cls-9{fill:none;stroke-miterlimit:10;}.cls-9{stroke:#939598;}.cls-10{stroke:#58595b;stroke-width:1.5px;}.cls-11{fill:#ed1c24;}.cls-12{fill:#fff;}</style></defs><title>drive_stop</title><g id="Layer_2" data-name="Layer 2"><g id="Work_area_squares" data-name="Work area squares"><rect class="cls-1" width="80" height="80"/></g><g id="Edison_Icons" data-name="Edison Icons"><path id="rect4136" class="cls-2" d="M40,15.47c-11.88,0-21.51,2.81-21.51,6.27h0c0,.25,0,45.48,0,45.48h43s0-45.23,0-45.48c0-3.46-9.63-6.27-21.51-6.27Z"/><path class="cls-3" d="M40,21.8h0c11.86,0,21.48,2.8,21.5,6.26,0-4.41,0-7.39,0-7.45,0-3.46-9.63-6.27-21.51-6.27h0c-11.88,0-21.51,2.81-21.51,6.27h0c0,.06,0,3,0,7.45C18.54,24.59,28.15,21.8,40,21.8Z"/><path class="cls-4" d="M45.17,46.17,42,40.71a2.25,2.25,0,0,0-3.88,0l-3.23,5.55c-.31.52-.6,1-.6,3.28V58.8a5.73,5.73,0,0,0,11.47,0V49.54C45.73,47.13,45.53,46.78,45.17,46.17Z"/><path class="cls-5" d="M40,54a4.76,4.76,0,0,1,3.3,1.33.4.4,0,0,0,.68-.28V49.54a1,1,0,0,0-1-1H37a1,1,0,0,0-1,1v5.54a.39.39,0,0,0,.67.28A4.76,4.76,0,0,1,40,54Z"/><path class="cls-5" d="M40.49,41.59,43.67,47a.5.5,0,0,1-.43.75H36.88a.5.5,0,0,1-.43-.75l3.18-5.46A.5.5,0,0,1,40.49,41.59Z"/><circle class="cls-5" cx="40.01" cy="58.8" r="3.98"/><path class="cls-6" d="M15,44c-2,0-3.46,1.63-3.46,3.89V67.16A3.35,3.35,0,0,0,15,70.77a3.35,3.35,0,0,0,3.46-3.6V47.89C18.49,45.64,17,44,15,44Z"/><path id="rect4142" class="cls-7" d="M15,45h0a2.6,2.6,0,0,1,2.46,2.89V67.16A2.35,2.35,0,0,1,15,69.77h0a2.35,2.35,0,0,1-2.46-2.6V47.89A2.6,2.6,0,0,1,15,45Z"/><path class="cls-8" d="M15,45a2.6,2.6,0,0,0-2.46,2.89V67.16A2.35,2.35,0,0,0,15,69.77Z"/><path class="cls-6" d="M15,70.27a2.85,2.85,0,0,1-3-3.1V47.89a3.09,3.09,0,0,1,3-3.39,3.09,3.09,0,0,1,3,3.39V67.16A2.85,2.85,0,0,1,15,70.27ZM15,45.5c-1.16,0-2,1-2,2.39V67.16a1.85,1.85,0,0,0,2,2.1,1.85,1.85,0,0,0,2-2.1V47.89C17,46.48,16.19,45.5,15,45.5Z"/><path class="cls-6" d="M65,44c-2,0-3.46,1.63-3.46,3.89V67.16a3.47,3.47,0,1,0,6.93,0V47.89C68.43,45.64,67,44,65,44Z"/><path id="rect4142-2" data-name="rect4142" class="cls-7" d="M65,45h0a2.6,2.6,0,0,1,2.46,2.89V67.16A2.35,2.35,0,0,1,65,69.77h0a2.35,2.35,0,0,1-2.46-2.6V47.89A2.6,2.6,0,0,1,65,45Z"/><path class="cls-8" d="M65,45a2.6,2.6,0,0,0-2.46,2.89V67.16A2.35,2.35,0,0,0,65,69.77Z"/><path class="cls-6" d="M65,70.27a2.85,2.85,0,0,1-3-3.1V47.89a3,3,0,1,1,5.93,0V67.16A2.85,2.85,0,0,1,65,70.27ZM65,45.5c-1.16,0-2,1-2,2.39V67.16a2,2,0,1,0,3.93,0V47.89C66.93,46.48,66.13,45.5,65,45.5Z"/><path class="cls-5" d="M56.41,23.83H55.8l-2.55-.67a3.25,3.25,0,0,0-1.94,4.6H44.23V23.69s2.39-2.76,2.46-5.5a24.68,24.68,0,0,0-.05-3.86s-4.29-.31-7-.31-6.16.31-6.16.31a30.49,30.49,0,0,0-.12,3.86c0,2.7,2.46,5.5,2.46,5.5v4.09H28.73a3.25,3.25,0,0,0-1.94-4.6l-2.55.67h-.61a3.28,3.28,0,0,0,2.17,5.75H54.24a3.28,3.28,0,0,0,2.17-5.75Z"/><circle class="cls-9" cx="26.06" cy="26.31" r="1.38"/><circle class="cls-9" cx="53.99" cy="26.31" r="1.38"/><path id="rect4136-2" data-name="rect4136" class="cls-10" d="M40,14.33c-11.88,0-21.51,2.81-21.51,6.27h0c0,.25,0,47.21,0,47.21h43s0-47,0-47.21c0-3.46-9.63-6.27-21.51-6.27Z"/><circle class="cls-9" cx="39.64" cy="17.82" r="1.38"/><circle class="cls-2" cx="26.37" cy="19.62" r="1.7" transform="translate(-6.15 24.39) rotate(-45)"/><circle class="cls-2" cx="30.65" cy="18.89" r="1.7" transform="translate(-4.38 27.21) rotate(-45)"/><circle class="cls-2" cx="22.57" cy="21.16" r="1.7" transform="translate(-8.35 22.16) rotate(-45)"/><circle class="cls-2" cx="53.72" cy="19.62" r="1.7" transform="translate(1.86 43.73) rotate(-45)"/><circle class="cls-2" cx="49.44" cy="18.89" r="1.7" transform="translate(1.12 40.49) rotate(-45)"/><circle class="cls-2" cx="57.52" cy="21.16" r="1.7" transform="translate(1.89 46.87) rotate(-45)"/></g><g id="Control_icons" data-name="Control icons"><polygon class="cls-11" points="44.25 46.5 50.11 52.36 50.11 60.65 44.25 66.5 35.97 66.5 30.11 60.65 30.11 52.36 35.97 46.5 44.25 46.5"/><path class="cls-12" d="M44.25,46.5l5.86,5.86v8.28L44.25,66.5H36l-5.86-5.86V52.36L36,46.5h8.28m.83-2H35.14l-.59.59-5.86,5.86-.59.59v9.94l.59.59,5.86,5.86.59.59h9.94l.59-.59,5.86-5.86.59-.59V51.53l-.59-.59-5.86-5.86-.59-.59Z"/></g></g></svg>