<?xml version="1.0" encoding="utf-8"?>
<svg xmlns="http://www.w3.org/2000/svg" viewBox="6.191 6.9 34.9709 27.942" width="34.9709px" height="27.942px"><g id="object-0" transform="matrix(1, 0, 0, 1, 0, 4.440892098500626e-16)"><g id="Icon/Essential/move-left" stroke-width="1" fill-rule="nonzero" transform="matrix(0.759252, 0, 0, 0.760729, 8.627438, 1.409014)" style=""><path d="M13.485 11.48c7.08-5.954 17.603-5.686 24.196.907 6.97 6.97 6.872 18.33-.173 25.374-5.802 5.802-14.69 6.99-21.646 3.02a3.78 3.78 0 013.564-6.664l.183.098c3.997 2.282 9.162 1.592 12.554-1.8 4.112-4.112 4.169-10.686.172-14.682-3.612-3.612-9.33-3.913-13.433-.9l2.497 2.468c.425.416.684.97.733 1.559l.008.197.001.541h-.071l-.021.098a2.48 2.48 0 01-1.646 1.737l-.178.05-.162.032-12.907 2.19a2.48 2.48 0 01-2.893-2.316l-.003-.141.007-.4L6.352 9.957a2.48 2.48 0 012.67-2.086l.162.02.193.037c.382.09.737.27 1.034.524l.144.133 2.93 2.895z" id="Path" fill="#5565ee"/><path d="M13.446 12.96c6.647-6.263 17.049-6.232 23.471.19 6.545 6.546 6.453 17.222-.172 23.847-5.458 5.458-13.815 6.574-20.348 2.847a2.7 2.7 0 012.676-4.69c4.42 2.522 10.118 1.76 13.853-1.975 4.531-4.531 4.594-11.789.173-16.21-4.293-4.292-11.26-4.358-15.808-.21l3.351 3.312.095.102c.148.178.249.388.295.612l.014.095.002.182a1.398 1.398 0 01-1.166 1.389L6.976 24.64a1.4 1.4 0 01-1.636-1.388v-.317l2.078-12.81a1.4 1.4 0 012.375-.775l3.653 3.61z" id="Path" fill="#FFF"/></g><path d="M 6.191 28.771 C 6.191 25.418 8.91 22.7 12.262 22.7 C 15.614 22.7 18.333 25.418 18.333 28.771 C 18.333 32.125 15.614 34.842 12.262 34.842 C 8.91 34.842 6.191 32.125 6.191 28.771 Z" id="path-1" style="fill: rgb(85, 101, 238); transform-origin: 12.262px 28.771px;" stroke-width="1" fill-rule="evenodd" transform="matrix(-1, 0, 0, -1, 0, 0)"/><path d="M 12.262 34.429 C 15.339 34.429 17.851 31.957 17.918 28.896 L 17.919 28.771 C 17.919 25.694 15.449 23.182 12.386 23.115 L 12.262 23.114 C 9.144 23.114 6.604 25.652 6.604 28.771 C 6.604 31.85 9.076 34.36 12.137 34.427 L 12.262 34.429 Z M 12.262 27.046 C 11.04 27.049 10.273 25.728 10.881 24.669 C 11.137 24.224 11.591 23.93 12.101 23.879 L 12.183 23.876 L 12.262 23.873 L 12.343 23.876 C 13.126 23.915 13.762 24.52 13.84 25.299 L 13.847 25.38 L 13.849 25.46 L 13.847 25.541 C 13.806 26.323 13.201 26.96 12.421 27.039 L 12.341 27.045 L 12.262 27.046 Z M 15.573 30.357 C 14.352 30.353 13.594 29.027 14.207 27.972 C 14.461 27.534 14.911 27.245 15.414 27.193 L 15.495 27.186 L 15.573 27.184 L 15.655 27.186 C 16.438 27.227 17.072 27.832 17.153 28.611 L 17.157 28.692 L 17.16 28.771 L 17.157 28.854 C 17.118 29.635 16.513 30.27 15.733 30.351 L 15.653 30.357 L 15.573 30.357 Z M 8.95 30.357 C 7.728 30.353 6.97 29.027 7.583 27.972 C 7.839 27.536 8.287 27.245 8.791 27.193 L 8.871 27.186 L 8.95 27.184 L 9.032 27.186 C 9.814 27.227 10.45 27.832 10.528 28.611 L 10.535 28.692 L 10.537 28.771 L 10.535 28.854 C 10.495 29.635 9.889 30.27 9.11 30.351 L 9.03 30.357 L 8.95 30.357 Z M 12.259 29.874 C 12.119 29.874 12.002 29.773 11.984 29.636 L 11.981 29.598 L 11.981 29.055 L 11.426 29.055 L 11.384 29.053 C 11.278 29.037 11.191 28.96 11.16 28.856 L 11.153 28.816 L 11.149 28.779 L 11.153 28.738 C 11.169 28.632 11.246 28.544 11.35 28.513 L 11.388 28.505 L 11.426 28.503 L 11.981 28.503 L 11.981 27.942 L 11.985 27.902 C 12.001 27.796 12.077 27.708 12.179 27.678 L 12.22 27.671 L 12.259 27.667 L 12.298 27.671 C 12.405 27.687 12.493 27.764 12.523 27.866 L 12.53 27.905 L 12.534 27.942 L 12.534 28.503 L 13.091 28.503 L 13.131 28.507 C 13.237 28.522 13.324 28.598 13.354 28.702 L 13.362 28.742 L 13.366 28.779 L 13.362 28.82 C 13.346 28.927 13.269 29.015 13.167 29.044 L 13.128 29.053 L 13.091 29.055 L 12.534 29.055 L 12.534 29.598 L 12.53 29.64 C 12.515 29.747 12.438 29.833 12.334 29.864 L 12.295 29.873 L 12.259 29.874 Z M 12.262 33.671 C 11.04 33.673 10.273 32.353 10.881 31.294 C 11.137 30.849 11.591 30.555 12.101 30.505 L 12.183 30.498 L 12.262 30.496 L 12.343 30.498 C 13.126 30.538 13.762 31.144 13.84 31.924 L 13.847 32.003 L 13.849 32.083 L 13.847 32.164 C 13.806 32.947 13.201 33.583 12.421 33.663 L 12.341 33.668 L 12.262 33.671 Z" id="Shape" style="transform-origin: 12.262px 28.771px;" stroke-width="1" fill-rule="evenodd" fill="#FFF" transform="matrix(-1, 0, 0, -1, 0, 0)"/></g></svg>