<?xml version="1.0" encoding="utf-8"?>
<svg xmlns="http://www.w3.org/2000/svg" viewBox="5.9 6.9455 35.2553 27.8985" width="35.2553px" height="27.8985px"><g id="object-0"><g id="Icon/Essential/move-right" stroke-width="1" fill-rule="nonzero" transform="matrix(0.760129, 0, 0, 0.760129, 7.90723, 1.458946)" style=""><g><path d="M34.516 11.48l2.927-2.893a2.48 2.48 0 014.175 1.206l.03.16 2.092 12.982v.307a2.48 2.48 0 01-2.735 2.484l-.161-.021-12.908-2.19a2.48 2.48 0 01-1.934-1.648l-.05-.171-.023-.098h-.07l.001-.541a2.466 2.466 0 01.604-1.611l.135-.143 2.499-2.47c-4.103-3.013-9.82-2.712-13.433.9-3.996 3.996-3.94 10.57.173 14.682 3.317 3.318 8.332 4.05 12.291 1.945l.263-.145a3.78 3.78 0 013.746 6.566c-6.955 3.97-15.844 2.782-21.646-3.02-7.044-7.044-7.142-18.404-.173-25.374 6.594-6.593 17.116-6.861 24.197-.908z" id="path-2" fill="#5565ee"/><path d="M34.554 12.959l3.65-3.607c.177-.177.395-.302.633-.365l.145-.03a1.4 1.4 0 011.6 1.165l2.085 12.899-.007.227a1.4 1.4 0 01-1.635 1.392l-12.908-2.19-.133-.029a1.398 1.398 0 01-1.032-1.359l.001-.182.015-.095c.055-.269.19-.518.388-.712l3.353-3.315c-4.549-4.147-11.515-4.081-15.808.211-4.42 4.421-4.358 11.679.173 16.21 3.736 3.736 9.433 4.497 13.853 1.974a2.7 2.7 0 112.676 4.69c-6.533 3.728-14.89 2.612-20.347-2.846-6.626-6.625-6.718-17.301-.173-23.846 6.422-6.423 16.823-6.454 23.47-.192z" id="path-2" fill="#FFF"/></g></g><path d="M 5.9 28.773 C 5.9 25.42 8.619 22.702 11.971 22.702 C 15.323 22.702 18.042 25.42 18.042 28.773 C 18.042 32.127 15.323 34.844 11.971 34.844 C 8.619 34.844 5.9 32.127 5.9 28.773 Z" id="path-1" style="fill: rgb(85, 101, 238); transform-origin: 11.971px 28.773px;" stroke-width="1" fill-rule="evenodd" transform="matrix(-1, 0, 0, -1, 0, -0.000002)"/><path d="M 11.971 34.431 C 15.048 34.431 17.56 31.959 17.627 28.898 L 17.628 28.773 C 17.628 25.696 15.158 23.184 12.095 23.117 L 11.971 23.116 C 8.853 23.116 6.313 25.654 6.313 28.773 C 6.313 31.852 8.785 34.362 11.846 34.429 L 11.971 34.431 Z M 11.971 27.048 C 10.749 27.051 9.982 25.73 10.59 24.671 C 10.846 24.226 11.3 23.932 11.81 23.881 L 11.892 23.878 L 11.971 23.875 L 12.052 23.878 C 12.835 23.917 13.471 24.522 13.549 25.301 L 13.556 25.382 L 13.558 25.462 L 13.556 25.543 C 13.515 26.325 12.91 26.962 12.13 27.041 L 12.05 27.047 L 11.971 27.048 Z M 15.282 30.359 C 14.061 30.355 13.303 29.029 13.916 27.974 C 14.17 27.536 14.62 27.247 15.123 27.195 L 15.204 27.188 L 15.282 27.186 L 15.364 27.188 C 16.147 27.229 16.781 27.834 16.862 28.613 L 16.866 28.694 L 16.869 28.773 L 16.866 28.856 C 16.827 29.637 16.222 30.272 15.442 30.353 L 15.362 30.359 L 15.282 30.359 Z M 8.659 30.359 C 7.437 30.355 6.679 29.029 7.292 27.974 C 7.548 27.538 7.996 27.247 8.5 27.195 L 8.58 27.188 L 8.659 27.186 L 8.741 27.188 C 9.523 27.229 10.159 27.834 10.237 28.613 L 10.244 28.694 L 10.246 28.773 L 10.244 28.856 C 10.204 29.637 9.598 30.272 8.819 30.353 L 8.739 30.359 L 8.659 30.359 Z M 11.968 29.876 C 11.828 29.876 11.711 29.775 11.693 29.638 L 11.69 29.6 L 11.69 29.057 L 11.135 29.057 L 11.093 29.055 C 10.987 29.039 10.9 28.962 10.869 28.858 L 10.862 28.818 L 10.858 28.781 L 10.862 28.74 C 10.878 28.634 10.955 28.546 11.059 28.515 L 11.097 28.507 L 11.135 28.505 L 11.69 28.505 L 11.69 27.944 L 11.694 27.904 C 11.71 27.798 11.786 27.71 11.888 27.68 L 11.929 27.673 L 11.968 27.669 L 12.007 27.673 C 12.114 27.689 12.202 27.766 12.232 27.868 L 12.239 27.907 L 12.243 27.944 L 12.243 28.505 L 12.8 28.505 L 12.84 28.509 C 12.946 28.524 13.033 28.6 13.063 28.704 L 13.071 28.744 L 13.075 28.781 L 13.071 28.822 C 13.055 28.929 12.978 29.017 12.876 29.046 L 12.837 29.055 L 12.8 29.057 L 12.243 29.057 L 12.243 29.6 L 12.239 29.642 C 12.224 29.749 12.147 29.835 12.043 29.866 L 12.004 29.875 L 11.968 29.876 Z M 11.971 33.673 C 10.749 33.675 9.982 32.355 10.59 31.296 C 10.846 30.851 11.3 30.557 11.81 30.507 L 11.892 30.5 L 11.971 30.498 L 12.052 30.5 C 12.835 30.54 13.471 31.146 13.549 31.926 L 13.556 32.005 L 13.558 32.085 L 13.556 32.166 C 13.515 32.949 12.91 33.585 12.13 33.665 L 12.05 33.67 L 11.971 33.673 Z" id="Shape" style="transform-origin: 11.971px 28.773px;" stroke-width="1" fill-rule="evenodd" fill="#FFF" transform="matrix(-1, 0, 0, -1, 0, -0.000002)"/></g></svg>