<?xml version="1.0" encoding="utf-8"?>
<svg xmlns="http://www.w3.org/2000/svg" viewBox="5.8 6.9 35.242 27.942" width="35.242px" height="27.942px"><g id="object-0"><g id="Icon/Essential/move-left" stroke-width="1" fill-rule="nonzero" transform="matrix(0.759252, 0, 0, 0.760729, 2.565586, 1.409014)" style=""><path d="M13.485 11.48c7.08-5.954 17.603-5.686 24.196.907 6.97 6.97 6.872 18.33-.173 25.374-5.802 5.802-14.69 6.99-21.646 3.02a3.78 3.78 0 013.564-6.664l.183.098c3.997 2.282 9.162 1.592 12.554-1.8 4.112-4.112 4.169-10.686.172-14.682-3.612-3.612-9.33-3.913-13.433-.9l2.497 2.468c.425.416.684.97.733 1.559l.008.197.001.541h-.071l-.021.098a2.48 2.48 0 01-1.646 1.737l-.178.05-.162.032-12.907 2.19a2.48 2.48 0 01-2.893-2.316l-.003-.141.007-.4L6.352 9.957a2.48 2.48 0 012.67-2.086l.162.02.193.037c.382.09.737.27 1.034.524l.144.133 2.93 2.895z" id="Path" fill="#5565ee"/><path d="M13.446 12.96c6.647-6.263 17.049-6.232 23.471.19 6.545 6.546 6.453 17.222-.172 23.847-5.458 5.458-13.815 6.574-20.348 2.847a2.7 2.7 0 012.676-4.69c4.42 2.522 10.118 1.76 13.853-1.975 4.531-4.531 4.594-11.789.173-16.21-4.293-4.292-11.26-4.358-15.808-.21l3.351 3.312.095.102c.148.178.249.388.295.612l.014.095.002.182a1.398 1.398 0 01-1.166 1.389L6.976 24.64a1.4 1.4 0 01-1.636-1.388v-.317l2.078-12.81a1.4 1.4 0 012.375-.775l3.653 3.61z" id="Path" fill="#FFF"/></g><path d="M 28.9 28.771 C 28.9 25.418 31.619 22.7 34.971 22.7 C 38.323 22.7 41.042 25.418 41.042 28.771 C 41.042 32.125 38.323 34.842 34.971 34.842 C 31.619 34.842 28.9 32.125 28.9 28.771 Z" id="path-1" style="fill: rgb(85, 101, 238); transform-origin: 34.971px 28.771px;" stroke-width="1" fill-rule="evenodd" transform="matrix(-1, 0, 0, -1, 0, 0)"/><path d="M 34.971 34.429 C 38.048 34.429 40.56 31.957 40.627 28.896 L 40.628 28.771 C 40.628 25.694 38.158 23.182 35.095 23.115 L 34.971 23.114 C 31.853 23.114 29.313 25.652 29.313 28.771 C 29.313 31.85 31.785 34.36 34.846 34.427 L 34.971 34.429 Z M 34.971 27.046 C 33.749 27.049 32.982 25.728 33.59 24.669 C 33.846 24.224 34.3 23.93 34.81 23.879 L 34.892 23.876 L 34.971 23.873 L 35.052 23.876 C 35.835 23.915 36.471 24.52 36.549 25.299 L 36.556 25.38 L 36.558 25.46 L 36.556 25.541 C 36.515 26.323 35.91 26.96 35.13 27.039 L 35.05 27.045 L 34.971 27.046 Z M 38.282 30.357 C 37.061 30.353 36.303 29.027 36.916 27.972 C 37.17 27.534 37.62 27.245 38.123 27.193 L 38.204 27.186 L 38.282 27.184 L 38.364 27.186 C 39.147 27.227 39.781 27.832 39.862 28.611 L 39.866 28.692 L 39.869 28.771 L 39.866 28.854 C 39.827 29.635 39.222 30.27 38.442 30.351 L 38.362 30.357 L 38.282 30.357 Z M 31.659 30.357 C 30.437 30.353 29.679 29.027 30.292 27.972 C 30.548 27.536 30.996 27.245 31.5 27.193 L 31.58 27.186 L 31.659 27.184 L 31.741 27.186 C 32.523 27.227 33.159 27.832 33.237 28.611 L 33.244 28.692 L 33.246 28.771 L 33.244 28.854 C 33.204 29.635 32.598 30.27 31.819 30.351 L 31.739 30.357 L 31.659 30.357 Z M 34.968 29.874 C 34.828 29.874 34.711 29.773 34.693 29.636 L 34.69 29.598 L 34.69 29.055 L 34.135 29.055 L 34.093 29.053 C 33.987 29.037 33.9 28.96 33.869 28.856 L 33.862 28.816 L 33.858 28.779 L 33.862 28.738 C 33.878 28.632 33.955 28.544 34.059 28.513 L 34.097 28.505 L 34.135 28.503 L 34.69 28.503 L 34.69 27.942 L 34.694 27.902 C 34.71 27.796 34.786 27.708 34.888 27.678 L 34.929 27.671 L 34.968 27.667 L 35.007 27.671 C 35.114 27.687 35.202 27.764 35.232 27.866 L 35.239 27.905 L 35.243 27.942 L 35.243 28.503 L 35.8 28.503 L 35.84 28.507 C 35.946 28.522 36.033 28.598 36.063 28.702 L 36.071 28.742 L 36.075 28.779 L 36.071 28.82 C 36.055 28.927 35.978 29.015 35.876 29.044 L 35.837 29.053 L 35.8 29.055 L 35.243 29.055 L 35.243 29.598 L 35.239 29.64 C 35.224 29.747 35.147 29.833 35.043 29.864 L 35.004 29.873 L 34.968 29.874 Z M 34.971 33.671 C 33.749 33.673 32.982 32.353 33.59 31.294 C 33.846 30.849 34.3 30.555 34.81 30.505 L 34.892 30.498 L 34.971 30.496 L 35.052 30.498 C 35.835 30.538 36.471 31.144 36.549 31.924 L 36.556 32.003 L 36.558 32.083 L 36.556 32.164 C 36.515 32.947 35.91 33.583 35.13 33.663 L 35.05 33.668 L 34.971 33.671 Z" id="Shape" style="transform-origin: 34.971px 28.771px;" stroke-width="1" fill-rule="evenodd" fill="#FFF" transform="matrix(-1, 0, 0, -1, 0, 0)"/></g></svg>