<?xml version="1.0" encoding="utf-8"?>
<svg xmlns="http://www.w3.org/2000/svg" viewBox="5.822 6.9455 35.178 27.8985" width="35.178px" height="27.8985px"><g id="object-0" transform="matrix(0.9999999999999999, 0, 0, 0.9999999999999999, -4.440892098500626e-16, 0)"><path d="M 28.858 28.773 C 28.858 25.42 31.577 22.702 34.929 22.702 C 38.281 22.702 41 25.42 41 28.773 C 41 32.127 38.281 34.844 34.929 34.844 C 31.577 34.844 28.858 32.127 28.858 28.773 Z" id="path-1" style="fill: rgb(85, 101, 238); transform-origin: 34.929px 28.773px;" stroke-width="1" fill-rule="evenodd" transform="matrix(-1, 0, 0, -1, -0.000006, -0.000002)"/><path d="M 34.929 34.431 C 38.006 34.431 40.518 31.959 40.585 28.898 L 40.586 28.773 C 40.586 25.696 38.116 23.184 35.053 23.117 L 34.929 23.116 C 31.811 23.116 29.271 25.654 29.271 28.773 C 29.271 31.852 31.743 34.362 34.804 34.429 L 34.929 34.431 Z M 34.929 27.048 C 33.707 27.051 32.94 25.73 33.548 24.671 C 33.804 24.226 34.258 23.932 34.768 23.881 L 34.85 23.878 L 34.929 23.875 L 35.01 23.878 C 35.793 23.917 36.429 24.522 36.507 25.301 L 36.514 25.382 L 36.516 25.462 L 36.514 25.543 C 36.473 26.325 35.868 26.962 35.088 27.041 L 35.008 27.047 L 34.929 27.048 Z M 38.24 30.359 C 37.019 30.355 36.261 29.029 36.874 27.974 C 37.128 27.536 37.578 27.247 38.081 27.195 L 38.162 27.188 L 38.24 27.186 L 38.322 27.188 C 39.105 27.229 39.739 27.834 39.82 28.613 L 39.824 28.694 L 39.827 28.773 L 39.824 28.856 C 39.785 29.637 39.18 30.272 38.4 30.353 L 38.32 30.359 L 38.24 30.359 Z M 31.617 30.359 C 30.395 30.355 29.637 29.029 30.25 27.974 C 30.506 27.538 30.954 27.247 31.458 27.195 L 31.538 27.188 L 31.617 27.186 L 31.699 27.188 C 32.481 27.229 33.117 27.834 33.195 28.613 L 33.202 28.694 L 33.204 28.773 L 33.202 28.856 C 33.162 29.637 32.556 30.272 31.777 30.353 L 31.697 30.359 L 31.617 30.359 Z M 34.926 29.876 C 34.786 29.876 34.669 29.775 34.651 29.638 L 34.648 29.6 L 34.648 29.057 L 34.093 29.057 L 34.051 29.055 C 33.945 29.039 33.858 28.962 33.827 28.858 L 33.82 28.818 L 33.816 28.781 L 33.82 28.74 C 33.836 28.634 33.913 28.546 34.017 28.515 L 34.055 28.507 L 34.093 28.505 L 34.648 28.505 L 34.648 27.944 L 34.652 27.904 C 34.668 27.798 34.744 27.71 34.846 27.68 L 34.887 27.673 L 34.926 27.669 L 34.965 27.673 C 35.072 27.689 35.16 27.766 35.19 27.868 L 35.197 27.907 L 35.201 27.944 L 35.201 28.505 L 35.758 28.505 L 35.798 28.509 C 35.904 28.524 35.991 28.6 36.021 28.704 L 36.029 28.744 L 36.033 28.781 L 36.029 28.822 C 36.013 28.929 35.936 29.017 35.834 29.046 L 35.795 29.055 L 35.758 29.057 L 35.201 29.057 L 35.201 29.6 L 35.197 29.642 C 35.182 29.749 35.105 29.835 35.001 29.866 L 34.962 29.875 L 34.926 29.876 Z M 34.929 33.673 C 33.707 33.675 32.94 32.355 33.548 31.296 C 33.804 30.851 34.258 30.557 34.768 30.507 L 34.85 30.5 L 34.929 30.498 L 35.01 30.5 C 35.793 30.54 36.429 31.146 36.507 31.926 L 36.514 32.005 L 36.516 32.085 L 36.514 32.166 C 36.473 32.949 35.868 33.585 35.088 33.665 L 35.008 33.67 L 34.929 33.673 Z" id="Shape" style="transform-origin: 34.929px 28.773px;" stroke-width="1" fill-rule="evenodd" fill="#FFF" transform="matrix(-1, 0, 0, -1, -0.000006, -0.000002)"/><g id="Icon/Essential/move-right" stroke-width="1" fill-rule="nonzero" transform="matrix(0.760129, 0, 0, 0.760129, 1.90723, 1.458946)" style=""><path d="M34.516 11.48l2.927-2.893a2.48 2.48 0 014.175 1.206l.03.16 2.092 12.982v.307a2.48 2.48 0 01-2.735 2.484l-.161-.021-12.908-2.19a2.48 2.48 0 01-1.934-1.648l-.05-.171-.023-.098h-.07l.001-.541a2.466 2.466 0 01.604-1.611l.135-.143 2.499-2.47c-4.103-3.013-9.82-2.712-13.433.9-3.996 3.996-3.94 10.57.173 14.682 3.317 3.318 8.332 4.05 12.291 1.945l.263-.145a3.78 3.78 0 013.746 6.566c-6.955 3.97-15.844 2.782-21.646-3.02-7.044-7.044-7.142-18.404-.173-25.374 6.594-6.593 17.116-6.861 24.197-.908z" id="path-2" fill="#5565ee"/><path d="M34.554 12.959l3.65-3.607c.177-.177.395-.302.633-.365l.145-.03a1.4 1.4 0 011.6 1.165l2.085 12.899-.007.227a1.4 1.4 0 01-1.635 1.392l-12.908-2.19-.133-.029a1.398 1.398 0 01-1.032-1.359l.001-.182.015-.095c.055-.269.19-.518.388-.712l3.353-3.315c-4.549-4.147-11.515-4.081-15.808.211-4.42 4.421-4.358 11.679.173 16.21 3.736 3.736 9.433 4.497 13.853 1.974a2.7 2.7 0 112.676 4.69c-6.533 3.728-14.89 2.612-20.347-2.846-6.626-6.625-6.718-17.301-.173-23.846 6.422-6.423 16.823-6.454 23.47-.192z" id="path-2" fill="#FFF"/></g></g></svg>