<?xml version="1.0" encoding="utf-8"?>
<svg id="Layer_1" data-name="Layer 1" xmlns="http://www.w3.org/2000/svg" viewBox="0 0 115.04 122.88">
  <title>diode-led-light</title>
  <g>
    <path d="M 88.89 50.07 L 88.89 77.07 L 97.34 77.07 C 98.50141363088893 77.07550446086609 99.44001304398299 78.01857332520132 99.44 79.17999999999999 L 99.44 96.43 C 99.44001304398299 97.59142667479868 98.50141363088893 98.53449553913391 97.34 98.54 L 80.7 98.54 L 80.7 119.54 C 80.69450832483632 121.3989199975994 79.18891999705214 122.90450813959548 77.33 122.91000000000001 L 74.17 122.91000000000001 C 72.30555703066283 122.90450825595086 70.79549176669167 121.3944429692705 70.79 119.53000000000002 L 70.79 98.53000000000002 L 44.25 98.53000000000002 L 44.25 119.53000000000002 C 44.24450832483632 121.38891999759942 42.73891999705215 122.89450813959549 40.88 122.90000000000002 L 37.72 122.90000000000002 C 35.857820378153136 122.8890778938382 34.3509221562567 121.38217962155306 34.339999999999996 119.52000000000002 L 34.339999999999996 98.52000000000002 L 17.71 98.52000000000002 C 16.544679177857027 98.52000000000002 15.600000000000001 97.575320822143 15.600000000000001 96.41000000000003 L 15.600000000000001 79.21 C 15.600000000000001 78.04467917785702 16.544679177857027 77.1 17.71 77.1 L 26.15 77.1 L 26.15 50.099999999999994 C 26.15 33.879999999999995 34.29 23.449999999999996 44.709999999999994 18.849999999999994 C 52.877356552061684 15.282157397333314 62.16264344793831 15.282157397333318 70.33 18.849999999999994 C 80.75 23.449999999999996 88.89 33.849999999999994 88.89 50.099999999999994 L 88.89 50.07 Z" style="fill: rgb(0, 96, 190);"/>
    <path d="M 83.59 76.05999999999999 L 83.59 50.05999999999999 C 83.59 36.249999999999986 76.83 27.439999999999987 68.18 23.62999999999999 C 61.363396496769994 20.656976741199987 53.61660350323003 20.656976741199983 46.80000000000001 23.62999999999999 C 38.15000000000001 27.439999999999987 31.39000000000001 36.249999999999986 31.39000000000001 50.05999999999999 L 31.39000000000001 76.05999999999999 L 83.59 76.05999999999999 Z" style="fill: rgb(0, 96, 190);"/>
    <path d="M 86.45 81.32 L 19.81 81.32 L 19.81 94.32 L 95.23 94.32 L 95.23 81.32 L 86.45 81.32 Z" style="fill: rgb(0, 96, 190);"/>
  </g>
</svg>