<?xml version="1.0" encoding="utf-8"?>
<svg id="Layer_1" data-name="Layer 1" xmlns="http://www.w3.org/2000/svg" viewBox="0 0 115.04 122.88">
  <title>diode-led-light</title>
  <g>
    <path d="M 88.89 50.07 L 88.89 77.07 L 97.34 77.07 C 98.50141363088893 77.07550446086609 99.44001304398299 78.01857332520132 99.44 79.17999999999999 L 99.44 96.43 C 99.44001304398299 97.59142667479868 98.50141363088893 98.53449553913391 97.34 98.54 L 80.7 98.54 L 80.7 119.54 C 80.69450832483632 121.3989199975994 79.18891999705214 122.90450813959548 77.33 122.91000000000001 L 74.17 122.91000000000001 C 72.30555703066283 122.90450825595086 70.79549176669167 121.3944429692705 70.79 119.53000000000002 L 70.79 98.53000000000002 L 44.25 98.53000000000002 L 44.25 119.53000000000002 C 44.24450832483632 121.38891999759942 42.73891999705215 122.89450813959549 40.88 122.90000000000002 L 37.72 122.90000000000002 C 35.857820378153136 122.8890778938382 34.3509221562567 121.38217962155306 34.339999999999996 119.52000000000002 L 34.339999999999996 98.52000000000002 L 17.71 98.52000000000002 C 16.544679177857027 98.52000000000002 15.600000000000001 97.575320822143 15.600000000000001 96.41000000000003 L 15.600000000000001 79.21 C 15.600000000000001 78.04467917785702 16.544679177857027 77.1 17.71 77.1 L 26.15 77.1 L 26.15 50.099999999999994 C 26.15 33.879999999999995 34.29 23.449999999999996 44.709999999999994 18.849999999999994 C 52.877356552061684 15.282157397333314 62.16264344793831 15.282157397333318 70.33 18.849999999999994 C 80.75 23.449999999999996 88.89 33.849999999999994 88.89 50.099999999999994 L 88.89 50.07 Z" style="fill: rgb(0, 96, 190);"/>
    <path d="M 83.59 76.05999999999999 L 83.59 50.05999999999999 C 83.59 36.249999999999986 76.83 27.439999999999987 68.18 23.62999999999999 C 61.363396496769994 20.656976741199987 53.61660350323003 20.656976741199983 46.80000000000001 23.62999999999999 C 38.15000000000001 27.439999999999987 31.39000000000001 36.249999999999986 31.39000000000001 50.05999999999999 L 31.39000000000001 76.05999999999999 L 83.59 76.05999999999999 Z" style="fill: rgb(0, 96, 190);"/>
    <path d="M 86.45 81.32 L 19.81 81.32 L 19.81 94.32 L 95.23 94.32 L 95.23 81.32 L 86.45 81.32 Z" style="fill: rgb(0, 96, 190);"/>
    <path d="M 88.67999999999998 15.070000000000002 C 86.70546211953463 17.094574983128844 83.27970923539685 16.222434390833545 82.5136448083735 13.500146934051457 C 82.15811305658693 12.236728879075198 82.50361370793419 10.87960852054585 83.41999999999997 9.940000000000001 L 92 1.11 C 94.05244958504986 -0.8425820409792322 97.4489626377014 0.1588960352373383 98.11372349563776 2.912660536366954 C 98.39866985102078 4.093047661770145 98.08297918292362 5.338017162360336 97.27 6.24 L 88.72 15.07 L 88.67999999999998 15.070000000000002 Z" style="fill: rgb(255, 255, 255);"/>
    <path d="M 31.44999999999999 9.740000000000002 C 33.42068893745165 11.768423927665065 32.45653620872041 15.169522235031561 29.714525088992428 15.861976953989133 C 28.441953276535596 16.183346313291928 27.09459991831975 15.801394854653372 26.17999999999999 14.860000000000003 L 17.82 6.24 C 15.923373744162316 4.135734149021793 17.015916938837204 0.7674098439089801 19.786577750019255 0.17701625035808277 C 20.9742073926546 -0.07605295598186873 22.210227940792265 0.2730356548209104 23.09 1.1100000000000003 L 31.439999999999998 9.740000000000002 L 31.44999999999999 9.740000000000002 Z" style="fill: rgb(255, 255, 255);"/>
    <path d="M 98.44999999999999 41.59 C 95.72105771517748 42.35980031477406 93.18213549822367 39.88675883231831 93.87994001219933 37.13852533081344 C 94.20379220345012 35.86306576627095 95.18349353182435 34.85726559956162 96.44999999999999 34.5 L 110.35999999999999 30.5 C 113.13524066783405 29.894327451835665 115.52542584489296 32.520068260643825 114.6623333240611 35.22633345468599 C 114.30952513647064 36.33257930342639 113.45659011198124 37.20823617066154 112.35999999999999 37.59 L 98.43999999999998 41.59 L 98.44999999999999 41.59 Z" style="fill: rgb(255, 255, 255);"/>
    <path d="M 18.6 34.5 C 21.32894228482251 35.26980031477406 22.201197923896828 38.705092190697385 20.17006015304998 40.6835253774282 C 19.22740580178358 41.60171944527033 17.866506552145268 41.947265623248406 16.6 41.59 L 2.6900000000000013 37.59 C -0.03894225646810767 36.820199584709606 -0.9111977709397334 33.384907676113414 1.1199400727796154 31.4064745641964 C 2.062594388423856 30.488280598715974 3.4234935279950043 30.14273444972004 4.690000000000001 30.500000000000004 L 18.6 34.5 Z" style="fill: rgb(255, 255, 255);"/>
  </g>
</svg>