<?xml version="1.0" encoding="utf-8"?>
<svg xmlns="http://www.w3.org/2000/svg" viewBox="5.7705 4.1455 18.3621 20.6562" width="18.3621px" height="20.6562px"><g style="" transform="matrix(1.3384990692138672, 0, 0, 1.3384990692138672, -3.837936878204344, -4.037468910217285)" id="object-0"><g style="transform-origin: 9.957px 10.528px;" transform="matrix(0, -1, 1, 0, 2.056515, 1.685531)"><path d="M 6.004 8.844 C 4.317 6.369 3.857 5.694 3.857 5.694 C 3.952 5.674 5.133 5.954 7.58 6.499 L 5.999 8.844 L 6.004 8.844 Z" fill="white"/><path d="M 8.466 7.089 L 16.057 12.193 C 16.027 12.403 15.917 13.043 15.421 13.693 C 15.061 14.168 14.671 14.418 14.481 14.528 C 12.469 13.173 8.496 10.519 6.884 9.434 L 8.466 7.089 Z" fill="white"/><path d="M 13.795 14.118 L 12.884 15.363 L 9.306 12.958" stroke="white" stroke-width="2" stroke-linecap="round" stroke-linejoin="round"/></g><g style="transform-origin: 9.957px 10.528px;" transform="matrix(0, 1, -1, 0, 6.104928, 4.91791)"><path d="M 6.004 8.844 C 4.317 6.369 3.857 5.694 3.857 5.694 C 3.952 5.674 5.133 5.954 7.58 6.499 L 5.999 8.844 L 6.004 8.844 Z" fill="white"/><path d="M 8.466 7.089 L 16.057 12.193 C 16.027 12.403 15.917 13.043 15.421 13.693 C 15.061 14.168 14.671 14.418 14.481 14.528 C 12.469 13.173 8.496 10.519 6.884 9.434 L 8.466 7.089 Z" fill="white"/><path d="M 13.795 14.118 L 12.884 15.363 L 9.306 12.958" stroke="white" stroke-width="2" stroke-linecap="round" stroke-linejoin="round"/></g></g></svg>