<?xml version="1.0" encoding="utf-8"?>
<svg xmlns="http://www.w3.org/2000/svg" viewBox="352.276 306.9929 23.434 14.8831" width="23.434px" height="14.8831px"><g id="object-0"><g><path d="M 363.743 321.87 C 362.842 321.823 361.981 321.487 361.285 320.915 L 361.101 320.753 L 353.497 313.644 C 352.722 312.934 352.278 311.932 352.276 310.881 C 352.276 309.834 352.711 308.85 353.497 308.115 C 354.283 307.387 355.317 306.985 356.388 306.993 C 357.392 306.993 358.347 307.332 359.099 307.954 L 359.283 308.115 L 363.993 312.519 L 368.702 308.115 C 369.425 307.444 370.361 307.049 371.346 307 L 371.597 306.993 C 372.668 306.985 373.702 307.387 374.488 308.115 C 375.264 308.825 375.707 309.827 375.71 310.879 C 375.71 311.847 375.338 312.761 374.665 313.47 L 374.488 313.643 L 366.887 320.753 C 366.164 321.424 365.227 321.819 364.242 321.87 L 363.993 321.876 L 363.743 321.87 Z" id="Path" style="fill: rgb(35, 31, 32); fill-opacity: 0.11;" stroke-width="1" fill-rule="nonzero"/></g><path d="M 371.597 308.273 C 370.905 308.273 370.257 308.497 369.744 308.907 L 369.577 309.052 L 363.993 314.272 L 358.41 309.052 C 357.86 308.544 357.138 308.266 356.388 308.273 C 355.642 308.266 354.921 308.544 354.372 309.052 C 353.855 309.52 353.56 310.183 353.556 310.88 C 353.556 311.5 353.789 312.085 354.22 312.556 L 354.371 312.709 L 361.974 319.817 C 362.465 320.272 363.097 320.544 363.764 320.587 L 363.993 320.596 L 364.221 320.587 C 364.813 320.548 365.38 320.33 365.846 319.961 L 366.012 319.817 L 373.615 312.708 C 374.132 312.239 374.427 311.576 374.43 310.879 C 374.43 310.191 374.143 309.545 373.614 309.052 C 373.065 308.544 372.343 308.266 371.597 308.273 Z" id="Path" stroke-width="1" fill-rule="nonzero" style="" fill="#FFF"/></g></svg>