<svg xmlns="http://www.w3.org/2000/svg" width="28" height="29" viewBox="0 0 28 29" fill="none">
<path d="M16.7709 12.9381C16.1317 12.2924 15.2855 11.8923 14.3809 11.8081L17.9009 15.3281C17.8167 14.4234 17.4166 13.5773 16.7709 12.9381Z" fill="white"/>
<path d="M23.6107 24.0382C23.6133 24.0382 23.6159 24.0371 23.6177 24.0352C23.6196 24.0334 23.6207 24.0308 23.6207 24.0282L18.5407 18.9482C18.5407 18.9495 18.5404 18.9508 18.5399 18.952C18.5394 18.9532 18.5387 18.9543 18.5377 18.9552C18.5368 18.9562 18.5357 18.9569 18.5345 18.9574C18.5333 18.9579 18.532 18.9582 18.5307 18.9582L17.3307 17.7582L17.3407 17.7482L11.9707 12.3782L11.9607 12.3882L10.6907 11.1182C10.6907 11.1182 10.7007 11.0982 10.7007 11.1082L6.55067 6.95818H6.52667L3.24867 3.68018L1.76367 5.16418L4.09467 7.49618C3.45513 7.85156 2.92315 8.37269 2.55467 9.00477C2.18618 9.63686 1.99481 10.3565 2.00067 11.0882V20.3482C2.00358 21.4266 2.43334 22.4601 3.19602 23.2225C3.95869 23.985 4.99223 24.4145 6.07067 24.4172H21.0167L23.2527 26.6532L24.7377 25.1682L23.6077 24.0382H23.6107ZM5.01067 10.8482C4.94096 10.8486 4.87186 10.8351 4.80738 10.8086C4.7429 10.7821 4.68431 10.7431 4.63502 10.6938C4.58572 10.6445 4.5467 10.5859 4.52021 10.5215C4.49371 10.457 4.48027 10.3879 4.48067 10.3182C4.47945 10.2482 4.49233 10.1788 4.51853 10.1139C4.54474 10.0491 4.58373 9.99015 4.63319 9.94069C4.68265 9.89123 4.74156 9.85224 4.80642 9.82604C4.87127 9.79983 4.94074 9.78696 5.01067 9.78818C5.08038 9.78778 5.14948 9.80121 5.21396 9.82771C5.27845 9.8542 5.33703 9.89323 5.38633 9.94252C5.43562 9.99182 5.47464 10.0504 5.50114 10.1149C5.52763 10.1794 5.54107 10.2485 5.54067 10.3182C5.53963 10.4584 5.48345 10.5926 5.38428 10.6918C5.28511 10.791 5.15091 10.8471 5.01067 10.8482ZM16.9807 20.3882C16.1318 20.9137 15.1581 21.2031 14.16 21.2265C13.162 21.2499 12.1758 21.0064 11.3032 20.5212C10.4307 20.036 9.70354 19.3267 9.1968 18.4665C8.69006 17.6064 8.42212 16.6265 8.42067 15.6282C8.41336 14.5817 8.70477 13.5548 9.26067 12.6682L10.5497 13.9582C10.2748 14.4931 10.1341 15.0868 10.1397 15.6882C10.1427 16.3504 10.314 17.0009 10.6374 17.5787C10.9609 18.1566 11.4258 18.6427 11.9886 18.9916C12.5514 19.3405 13.1937 19.5407 13.855 19.5733C14.5164 19.6059 15.1752 19.47 15.7697 19.1782L16.9807 20.3882Z" fill="white"/>
<path d="M21.9301 6.95822H19.5201L19.1601 5.29822C19.0892 5.04114 18.9348 4.81497 18.7211 4.65544C18.5074 4.4959 18.2467 4.41208 17.9801 4.41722H10.2501C9.98359 4.41202 9.72296 4.4957 9.5093 4.65504C9.29564 4.81438 9.1411 5.04032 9.07008 5.29722L8.83008 6.25722L9.53008 6.95722L10.7701 8.19722L12.7401 10.1672C13.1625 10.0658 13.5956 10.0154 14.0301 10.0172C14.7678 10.012 15.4991 10.1536 16.1816 10.4339C16.864 10.7141 17.4838 11.1273 18.005 11.6494C18.5262 12.1715 18.9383 12.7921 19.2173 13.475C19.4963 14.1579 19.6366 14.8895 19.6301 15.6272C19.6314 16.0583 19.581 16.4881 19.4801 16.9072L25.2601 22.6872C25.7431 22.0026 26.0016 21.185 26.0001 20.3472V11.0872C26.0056 10.5484 25.9046 10.0138 25.7027 9.51422C25.5009 9.01462 25.2022 8.55986 24.824 8.17611C24.4457 7.79236 23.9953 7.4872 23.4986 7.27819C23.002 7.06918 22.4689 6.96043 21.9301 6.95822Z" fill="white"/>
</svg>