<svg xmlns="http://www.w3.org/2000/svg" width="28" height="29" viewBox="0 0 28 29" fill="none">
<path d="M14.0298 11.792C13.2595 11.7918 12.5065 12.02 11.866 12.4478C11.2255 12.8756 10.7262 13.4838 10.4314 14.1954C10.1365 14.9069 10.0593 15.69 10.2095 16.4454C10.3598 17.2009 10.7306 17.8948 11.2753 18.4395C11.8199 18.9841 12.5139 19.355 13.2693 19.5052C14.0248 19.6554 14.8078 19.5782 15.5194 19.2834C16.231 18.9885 16.8391 18.4893 17.2669 17.8488C17.6947 17.2082 17.923 16.4552 17.9228 15.685C17.9232 15.1736 17.8227 14.6672 17.6272 14.1947C17.4317 13.7222 17.145 13.2929 16.7834 12.9313C16.4218 12.5698 15.9925 12.283 15.52 12.0875C15.0475 11.892 14.5411 11.7916 14.0298 11.792Z" fill="white"/>
<path d="M21.9291 6.95419H19.5161L19.1621 5.30219C19.092 5.04437 18.9379 4.8173 18.7241 4.65699C18.5104 4.49668 18.2493 4.41229 17.9821 4.41719H10.2541C9.98697 4.41229 9.72583 4.49668 9.51208 4.65699C9.29834 4.8173 9.1442 5.04437 9.07411 5.30219L8.66111 6.89519V6.95419H6.13011C5.58664 6.9502 5.0478 7.0543 4.54492 7.26044C4.04204 7.46658 3.58517 7.77064 3.20086 8.15495C2.81656 8.53925 2.5125 8.99612 2.30636 9.499C2.10022 10.0019 1.99612 10.5407 2.00011 11.0842V20.3462C2.00222 21.4252 2.43181 22.4595 3.19481 23.2225C3.95782 23.9855 4.99206 24.4151 6.07111 24.4172H21.8711C22.4098 24.4221 22.9442 24.3205 23.4436 24.1184C23.9429 23.9162 24.3975 23.6175 24.7811 23.2392C25.1647 22.861 25.4699 22.4107 25.6791 21.9143C25.8883 21.4178 25.9974 20.8849 26.0001 20.3462V11.0842C26.0051 10.5454 25.9037 10.0109 25.7016 9.51143C25.4995 9.01194 25.2008 8.55728 24.8225 8.17355C24.4443 7.78982 23.9939 7.48457 23.4974 7.27532C23.0009 7.06606 22.4679 6.95694 21.9291 6.95419ZM5.00911 10.8482C4.90409 10.8482 4.80143 10.8171 4.7141 10.7587C4.62678 10.7004 4.55872 10.6174 4.51853 10.5204C4.47834 10.4234 4.46782 10.3166 4.48831 10.2136C4.5088 10.1106 4.55938 10.016 4.63364 9.94172C4.7079 9.86746 4.80251 9.81689 4.90552 9.7964C5.00852 9.77591 5.11529 9.78642 5.21232 9.82661C5.30934 9.8668 5.39227 9.93486 5.45062 10.0222C5.50897 10.1095 5.54011 10.2122 5.54011 10.3172C5.54037 10.387 5.52682 10.4562 5.50023 10.5207C5.47364 10.5853 5.43453 10.6439 5.38517 10.6933C5.33581 10.7426 5.27717 10.7817 5.21263 10.8083C5.14808 10.8349 5.07892 10.8485 5.00911 10.8482ZM14.0301 21.2312C12.9225 21.2312 11.8398 20.9028 10.9189 20.2874C9.998 19.6721 9.28024 18.7975 8.85639 17.7742C8.43253 16.751 8.32164 15.625 8.53771 14.5387C8.75379 13.4524 9.28714 12.4546 10.0703 11.6714C10.8535 10.8882 11.8513 10.3549 12.9376 10.1388C14.0239 9.92272 15.1499 10.0336 16.1731 10.4575C17.1964 10.8813 18.071 11.5991 18.6863 12.52C19.3017 13.4409 19.6301 14.5236 19.6301 15.6312C19.6301 17.1164 19.0401 18.5408 17.9899 19.591C16.9397 20.6412 15.5153 21.2312 14.0301 21.2312Z" fill="white"/>
</svg>