<svg xmlns="http://www.w3.org/2000/svg" width="28" height="28" viewBox="0 0 28 28" fill="none">
  <path d="M14.4397 26.06C19.2297 25.96 19.9497 21.21 19.6297 16.8C19.6097 16.56 19.4897 13.38 19.5997 12.01C19.7097 10.64 19.9997 7.40004 20.0097 6.52004C20.0197 5.64004 19.7197 4.33004 18.8497 4.26004C17.9797 4.19004 17.4897 4.54004 17.1697 6.24004C16.8497 7.94004 16.3597 12.06 16.3597 12.06C16.3597 12.06 16.2097 12.87 16.0697 12.87C15.9297 12.87 15.8297 12.05 15.8297 12.05C15.8297 12.05 15.4597 5.73004 15.4397 5.58004C15.4197 5.43004 15.4197 1.76004 13.6897 1.93004C11.9597 2.10004 12.1597 4.64004 12.2897 6.46004C12.4197 8.28004 12.6497 12.42 12.6497 12.42C12.6497 12.42 12.6697 13.05 12.5197 13.07C9.16975 13.42 6.55975 16.77 7.06975 18.26C7.19975 18.64 7.73975 21.22 8.33975 22.36C8.93975 23.5 9.94975 26.15 14.4497 26.06H14.4397Z" fill="white"/>
  <path d="M18.1503 16.3401C18.1503 16.3401 18.1703 16.2901 18.1903 16.2601C18.2403 16.1801 18.3303 16.1201 18.4203 16.0701C19.6003 15.4101 20.9903 15.6901 21.0003 17.2001C21.0203 20.1201 19.7403 23.0301 17.5703 24.9901C17.7403 24.4201 18.0503 23.9101 18.2603 23.3501C18.6603 22.3101 18.7103 21.1501 18.6103 20.0401C18.5103 18.9301 18.2803 17.8301 18.1403 16.7101C18.1203 16.5901 18.1103 16.4501 18.1503 16.3401Z" fill="white"/>
</svg>