<svg xmlns="http://www.w3.org/2000/svg" width="28" height="28" viewBox="0 0 28 28" fill="none">
  <path d="M20.5402 16.0101C20.5002 14.0801 20.1202 12.1801 18.8702 11.4801C17.5602 10.7501 16.2602 9.94012 15.1402 8.93012C13.9102 7.82012 12.7802 6.48012 12.5602 4.85012C12.4002 3.65012 11.1502 2.61012 10.2102 3.92012C9.36017 5.12012 9.67017 6.68012 10.1202 8.27012C10.3302 9.00012 10.9502 10.2701 10.5402 10.5601C9.64017 11.1901 7.38017 10.7501 6.42017 11.5501C4.56017 13.1001 6.25017 22.6601 9.44017 22.9201C11.5002 23.0901 13.5202 22.9501 15.5502 22.5201C21.4302 21.2601 20.6302 20.8301 20.5302 16.0001L20.5402 16.0101Z" fill="white"/>
  <path d="M24.0003 12V21H19.8003L19.0703 12H24.0003Z" fill="white"/>
</svg>