<svg xmlns="http://www.w3.org/2000/svg" width="28" height="28" viewBox="0 0 28 28" fill="none">
  <path d="M20.5402 10.9901C20.5002 12.9201 20.1202 14.8201 18.8702 15.5201C17.5602 16.2501 16.2602 17.0601 15.1402 18.0701C13.9102 19.1801 12.7802 20.5201 12.5602 22.1501C12.4002 23.3501 11.1502 24.3901 10.2102 23.0801C9.36017 21.8801 9.67017 20.3201 10.1202 18.7301C10.3302 18.0001 10.9502 16.7301 10.5402 16.4401C9.64017 15.8101 7.38017 16.2501 6.42017 15.4501C4.56017 13.9001 6.25017 4.3401 9.44017 4.0801C11.5002 3.9101 13.5202 4.0501 15.5502 4.4801C21.4302 5.7401 20.6302 6.1701 20.5302 11.0001L20.5402 10.9901Z" fill="white"/>
  <path d="M24.0003 15V6H19.8003L19.0703 15H24.0003Z" fill="white"/>
</svg>