<svg xmlns="http://www.w3.org/2000/svg" width="28" height="28" viewBox="0 0 28 28" fill="none">
  <path d="M14.4199 26.06C19.3999 25.88 19.8099 21.04 19.6099 16.8C19.5999 16.56 19.4699 13.38 19.5799 12.02C19.6899 10.66 19.9799 7.40999 19.9899 6.52999C19.9999 5.64999 19.6999 4.33999 18.8299 4.26999C17.9599 4.19999 17.4699 4.54999 17.1499 6.24999C16.8299 7.94999 16.2999 12.31 16.2999 12.31C16.2999 12.31 16.2099 12.88 16.0299 12.9C14.7799 13.02 11.0899 12.58 8.72987 14.88C7.42987 16.15 6.81987 17.37 7.02987 18.29C7.19987 19.04 7.70987 21.24 8.30987 22.38C8.90987 23.52 9.91987 26.24 14.4199 26.08V26.06Z" fill="white"/>
  <path d="M18.1503 16.2999C18.1503 16.2999 18.1703 16.2499 18.1903 16.2199C18.2403 16.1399 18.3303 16.0799 18.4203 16.0299C19.6003 15.3699 20.9903 15.6499 21.0003 17.1499C21.0203 20.0699 19.7403 22.9799 17.5703 24.9299C17.7403 24.3599 18.0503 23.8499 18.2603 23.2999C18.6603 22.2599 18.7103 21.1099 18.6103 19.9899C18.5103 18.8699 18.2803 17.7799 18.1403 16.6699C18.1203 16.5499 18.1103 16.4099 18.1503 16.2999Z" fill="white"/>
</svg>