<svg xmlns="http://www.w3.org/2000/svg" width="28" height="28" viewBox="0 0 28 28" fill="none">
  <path d="M19.83 13.76C19.54 13.79 19.27 13.89 19.03 14.05C18.67 14.28 18.36 14.57 18.08 14.9C17.84 15.19 17.6 15.48 17.35 15.77C17.31 15.82 17.26 15.88 17.19 15.86C17.1 15.84 17.1 15.75 17.09 15.68C17.09 15.56 17.08 15.44 17.08 15.32C17.05 13.55 17.25 11.79 17.4 10.04C17.45 9.41997 17.51 8.79997 17.32 8.19997C17.19 7.78997 16.93 7.56997 16.58 7.55997C16.2 7.55997 15.97 7.77997 15.8 8.08997C15.66 8.33997 15.61 8.60997 15.57 8.88997C15.4 10.09 15.24 11.29 15.06 12.49C15.02 12.76 14.98 13.03 14.84 13.28C14.72 13.2 14.72 13.08 14.71 12.98C14.55 11.83 14.56 10.67 14.49 9.51997C14.44 8.66997 14.41 7.81997 14.21 6.98997C14.06 6.32997 13.73 6.01997 13.26 6.03997C12.76 6.05997 12.44 6.42997 12.34 7.08997C12.22 7.96997 12.32 8.83997 12.37 9.71997C12.44 10.84 12.58 11.95 12.56 13.07C12.56 13.18 12.59 13.31 12.48 13.42C12.33 13.18 12.27 12.92 12.21 12.66C11.95 11.48 11.69 10.29 11.43 9.10997C11.31 8.59997 11.2 8.07997 10.88 7.63997C10.63 7.29997 10.3 7.15997 9.97 7.25997C9.6 7.36997 9.36 7.68997 9.34 8.10997C9.32 8.44997 9.37 8.78997 9.43 9.12997C9.66 10.47 9.99 11.79 10.26 13.12C10.32 13.41 10.39 13.71 10.32 14.1C10.02 13.71 9.87 13.34 9.72 12.96C9.43 12.21 9.17 11.45 8.72 10.77C8.45 10.36 8.11 10.2 7.78 10.31C7.4 10.43 7.17 10.79 7.18 11.27C7.18 11.71 7.33 12.13 7.48 12.53C8.1 14.17 8.65 15.82 9.03 17.53C9.2 18.28 9.45 19.01 9.78 19.7C10.19 20.57 10.75 21.31 11.68 21.66C13.1 22.2 14.51 22.1 15.88 21.43C16.86 20.95 17.5 20.12 18.01 19.19C18.67 17.99 19.33 16.79 20.25 15.76C20.46 15.52 20.66 15.28 20.77 14.98C21.01 14.35 20.52 13.71 19.85 13.77L19.83 13.76Z" fill="white"/>
  <path d="M6.14 25C3.86 25 2 23.14 2 20.86V18.47C2 17.8 2.55 17.25 3.22 17.25C3.89 17.25 4.44 17.8 4.44 18.47V20.86C4.44 21.8 5.2 22.56 6.14 22.56H8.53C9.2 22.56 9.75 23.11 9.75 23.78C9.75 24.45 9.2 25 8.53 25H6.14Z" fill="#E59595"/>
  <path d="M19.4602 25C18.7902 25 18.2402 24.45 18.2402 23.78C18.2402 23.11 18.7902 22.56 19.4602 22.56H21.8502C22.7902 22.56 23.5502 21.8 23.5502 20.86V18.47C23.5502 17.8 24.1002 17.25 24.7702 17.25C25.4402 17.25 25.9902 17.8 25.9902 18.47V20.86C25.9902 23.14 24.1302 25 21.8502 25H19.4602Z" fill="#E59595"/>
  <path d="M24.78 10.76C24.11 10.76 23.56 10.21 23.56 9.54001V7.15001C23.56 6.21001 22.8 5.45001 21.86 5.45001H19.47C18.8 5.45001 18.25 4.90001 18.25 4.23001C18.25 3.56001 18.8 3.01001 19.47 3.01001H21.86C24.14 3.01001 26 4.87001 26 7.15001V9.54001C26 10.21 25.45 10.76 24.78 10.76Z" fill="#E59595"/>
  <path d="M3.22 10.76C2.55 10.76 2 10.21 2 9.54001V7.15001C2 4.87001 3.86 3.01001 6.14 3.01001H8.53C9.2 3.01001 9.75 3.56001 9.75 4.23001C9.75 4.90001 9.2 5.45001 8.53 5.45001H6.14C5.2 5.45001 4.44 6.21001 4.44 7.15001V9.54001C4.44 10.21 3.89 10.76 3.22 10.76Z" fill="#E59595"/>
</svg>