<svg xmlns="http://www.w3.org/2000/svg" width="28" height="28" viewBox="0 0 28 28" fill="none">
  <path d="M19.8328 13.7591C19.5471 13.7895 19.2727 13.8879 19.0328 14.0461C18.6745 14.2771 18.354 14.5621 18.0828 14.8911C17.8378 15.1811 17.5978 15.4741 17.3528 15.7631C17.3128 15.8111 17.2658 15.8731 17.1928 15.8531C17.1198 15.8331 17.1028 15.7441 17.0978 15.6711C17.0898 15.5511 17.0848 15.4311 17.0828 15.3111C17.0538 13.5411 17.2568 11.7851 17.3988 10.0261C17.4937 9.41219 17.4669 8.78561 17.3198 8.18208C17.2853 8.00719 17.1933 7.84884 17.0585 7.73217C16.9237 7.6155 16.7538 7.54719 16.5758 7.53808C16.4078 7.53826 16.2437 7.58849 16.1045 7.68235C15.9652 7.77622 15.857 7.90947 15.7938 8.06508C15.6707 8.31603 15.5935 8.58696 15.5658 8.86508C15.3948 10.0651 15.2348 11.2651 15.0608 12.4651C15.0399 12.742 14.9637 13.012 14.8368 13.2591C14.7128 13.1791 14.7208 13.0591 14.7068 12.9591C14.5478 11.8121 14.5548 10.6591 14.4878 9.50108C14.4677 8.65059 14.374 7.80343 14.2078 6.96908C14.0528 6.31308 13.7298 6.00208 13.2588 6.02108C12.7588 6.04208 12.4348 6.41408 12.3428 7.06808C12.2641 7.9436 12.2755 8.82489 12.3768 9.69808C12.4498 10.8141 12.5838 11.9261 12.5648 13.0471C12.5648 13.1601 12.5938 13.2861 12.4808 13.3981C12.3502 13.1622 12.2603 12.9059 12.2148 12.6401C11.9498 11.4581 11.6958 10.2741 11.4308 9.09208C11.3513 8.56927 11.1655 8.06829 10.8848 7.62008C10.7956 7.46674 10.6591 7.34649 10.4957 7.27742C10.3323 7.20836 10.1509 7.1942 9.97881 7.23708C9.79566 7.29246 9.6353 7.4055 9.5216 7.55938C9.4079 7.71326 9.34695 7.89975 9.34781 8.09108C9.33732 8.42947 9.36516 8.76796 9.43081 9.10008C9.65781 10.4401 9.98981 11.7591 10.2588 13.0921C10.3485 13.4105 10.3676 13.7446 10.3148 14.0711C10.0593 13.723 9.85705 13.3388 9.71481 12.9311C9.45817 12.1675 9.12304 11.4326 8.71481 10.7381C8.63584 10.563 8.49823 10.4209 8.32571 10.3364C8.1532 10.2518 7.95659 10.2302 7.76981 10.2751C7.57601 10.3443 7.4113 10.477 7.30239 10.6517C7.19348 10.8263 7.14676 11.0326 7.16981 11.2371C7.1975 11.6717 7.29895 12.0985 7.46981 12.4991C8.10523 14.128 8.62224 15.8007 9.01681 17.5041C9.18368 18.2544 9.43425 18.9836 9.76381 19.6781C9.934 20.1152 10.1897 20.514 10.516 20.8511C10.8422 21.1881 11.2325 21.4567 11.6638 21.6411C12.3399 21.9035 13.064 22.019 13.7881 21.9801C14.5123 21.9411 15.2198 21.7485 15.8638 21.4151C16.7946 20.9142 17.5425 20.131 17.9998 19.1781C18.6138 17.9531 19.3653 16.802 20.2398 15.7471C20.46 15.5212 20.6363 15.2564 20.7598 14.9661C20.8164 14.8235 20.8351 14.6687 20.8139 14.5168C20.7928 14.3648 20.7325 14.221 20.6391 14.0993C20.5456 13.9777 20.4222 13.8824 20.2809 13.8227C20.1395 13.7631 19.9852 13.7411 19.8328 13.7591Z" fill="white"/>
  <path d="M6.14252 24.9999C5.04415 24.9991 3.99097 24.5625 3.21421 23.7859C2.43745 23.0094 2.00058 21.9563 1.99952 20.8579V18.4639C1.99485 18.3008 2.02294 18.1385 2.08213 17.9864C2.14131 17.8344 2.23039 17.6958 2.34409 17.5788C2.4578 17.4617 2.59381 17.3687 2.74409 17.3052C2.89438 17.2417 3.05587 17.209 3.21902 17.209C3.38218 17.209 3.54367 17.2417 3.69395 17.3052C3.84424 17.3687 3.98025 17.4617 4.09395 17.5788C4.20766 17.6958 4.29674 17.8344 4.35592 17.9864C4.41511 18.1385 4.44319 18.3008 4.43852 18.4639V20.8579C4.4401 21.3083 4.61972 21.7398 4.93819 22.0582C5.25666 22.3767 5.68814 22.5563 6.13852 22.5579H8.53652C8.6966 22.5579 8.85512 22.5894 9.00302 22.6507C9.15091 22.712 9.28529 22.8018 9.39849 22.9149C9.51168 23.0281 9.60147 23.1625 9.66273 23.3104C9.72399 23.4583 9.75552 23.6168 9.75552 23.7769C9.75552 23.937 9.72399 24.0955 9.66273 24.2434C9.60147 24.3913 9.51168 24.5257 9.39849 24.6389C9.28529 24.7521 9.15091 24.8419 9.00302 24.9031C8.85512 24.9644 8.6966 24.9959 8.53652 24.9959L6.14252 24.9999Z" fill="white"/>
  <path d="M19.4622 24.9999C19.1389 24.9999 18.8288 24.8715 18.6002 24.6429C18.3716 24.4143 18.2432 24.1042 18.2432 23.7809C18.2432 23.4576 18.3716 23.1476 18.6002 22.9189C18.8288 22.6903 19.1389 22.5619 19.4622 22.5619H21.8562C22.3065 22.5603 22.738 22.3807 23.0565 22.0622C23.375 21.7438 23.5546 21.3123 23.5562 20.8619V18.4639C23.5515 18.3008 23.5796 18.1385 23.6388 17.9864C23.698 17.8344 23.787 17.6958 23.9007 17.5788C24.0144 17.4617 24.1505 17.3687 24.3007 17.3052C24.451 17.2417 24.6125 17.209 24.7757 17.209C24.9388 17.209 25.1003 17.2417 25.2506 17.3052C25.4009 17.3687 25.5369 17.4617 25.6506 17.5788C25.7643 17.6958 25.8534 17.8344 25.9126 17.9864C25.9717 18.1385 25.9998 18.3008 25.9952 18.4639V20.8579C25.9941 21.9556 25.5578 23.0081 24.7819 23.7845C24.006 24.561 22.9538 24.9981 21.8562 24.9999H19.4622Z" fill="white"/>
  <path d="M24.7794 10.7569C24.4561 10.7564 24.1462 10.6276 23.9177 10.3989C23.6892 10.1702 23.5607 9.86022 23.5604 9.53691V7.14291C23.5588 6.69252 23.3792 6.26104 23.0608 5.94257C22.7423 5.6241 22.3108 5.44449 21.8604 5.44291H19.4624C19.145 5.43382 18.8437 5.30135 18.6224 5.07364C18.4011 4.84593 18.2773 4.54092 18.2773 4.22341C18.2773 3.90589 18.4011 3.60088 18.6224 3.37317C18.8437 3.14546 19.145 3.013 19.4624 3.00391H21.8564C22.9542 3.00496 24.0068 3.44125 24.7834 4.21712C25.56 4.99299 25.9973 6.04513 25.9994 7.14291V9.53691C25.9992 9.86039 25.8705 10.1705 25.6418 10.3993C25.4131 10.628 25.1029 10.7566 24.7794 10.7569Z" fill="white"/>
  <path d="M3.22 10.757C2.89652 10.7567 2.58636 10.6281 2.35762 10.3994C2.12889 10.1706 2.00026 9.86048 2 9.537V7.143C2.00106 6.04453 2.43789 4.99136 3.21463 4.21463C3.99136 3.43789 5.04453 3.00106 6.143 3H8.537C8.85439 3.00909 9.15572 3.14156 9.37701 3.36927C9.59829 3.59698 9.72208 3.90198 9.72208 4.2195C9.72208 4.53702 9.59829 4.84202 9.37701 5.06973C9.15572 5.29744 8.85439 5.42991 8.537 5.439H6.143C5.69262 5.44058 5.26113 5.6202 4.94267 5.93867C4.6242 6.25714 4.44458 6.68862 4.443 7.139V9.537C4.44287 9.69743 4.41112 9.85626 4.34958 10.0044C4.28803 10.1526 4.1979 10.2871 4.08432 10.4004C3.97074 10.5137 3.83594 10.6035 3.68764 10.6647C3.53934 10.7259 3.38043 10.7573 3.22 10.757Z" fill="white"/>
</svg>