<svg xmlns="http://www.w3.org/2000/svg" width="28" height="29" viewBox="0 0 28 29" fill="none">
<path d="M14.8805 8.96224C14.8125 7.10824 11.9545 7.59124 12.0595 9.28624C11.9905 11.8022 11.8285 15.6742 11.8035 18.4072C11.8028 18.4624 11.7856 18.516 11.754 18.5613C11.7224 18.6065 11.6779 18.6411 11.6264 18.6608C11.5749 18.6804 11.5186 18.6841 11.465 18.6713C11.4113 18.6585 11.3627 18.63 11.3255 18.5892C9.95253 17.1892 6.94753 16.1522 6.89453 18.4162C6.89437 18.5477 6.92592 18.6772 6.9865 18.7939C7.04708 18.9105 7.13491 19.0108 7.24253 19.0862C8.78353 20.2112 10.0575 22.0652 11.4745 23.6342L11.4825 23.6422C13.6955 25.6722 17.5055 28.3422 20.2825 25.5002C21.2559 24.2584 21.7771 22.722 21.7605 21.1442C21.7715 17.2642 20.7075 13.7992 14.9865 14.8322C14.9743 14.8341 14.9618 14.8333 14.95 14.83C14.9381 14.8266 14.927 14.8208 14.9176 14.8128C14.9081 14.8049 14.9004 14.795 14.8951 14.7839C14.8897 14.7727 14.8868 14.7606 14.8865 14.7482L14.8805 8.96224Z" fill="white"/>
<path d="M26 3.77637V9.77637H16.88V8.88637C16.8742 8.4686 16.7855 8.05614 16.619 7.67294C16.4525 7.28974 16.2115 6.94342 15.9101 6.6541C15.6087 6.36477 15.2528 6.13819 14.8631 5.98752C14.4734 5.83684 14.0577 5.76507 13.64 5.77637C13.1394 5.77521 12.6438 5.87564 12.1831 6.07159C11.7225 6.26754 11.3064 6.55493 10.96 6.91637C10.6593 7.23332 10.4248 7.60706 10.2703 8.01572C10.1158 8.42438 10.0443 8.85975 10.06 9.29637C10.06 9.44637 10.05 9.60637 10.04 9.77637H2V3.77637H26Z" fill="white"/>
</svg>
