<svg xmlns="http://www.w3.org/2000/svg" viewBox="0 0 40 40">
  <g id="Icon" transform="matrix(1, 0, 0, 1, -199.298172, -200.273041)">
    <g id="object-1">
      <path d="M 219.384 235.808 C 218.974 235.808 218.554 235.808 218.144 235.808 C 217.559 235.761 216.978 235.678 216.404 235.558 C 216.066 235.495 215.732 235.411 215.404 235.308 L 214.874 235.158 C 212.789 234.467 210.884 233.323 209.294 231.808 C 207.934 230.532 206.831 229.008 206.044 227.318 C 205.747 226.632 205.497 225.927 205.294 225.208 C 205.144 224.568 205.024 224.008 204.964 223.508 C 204.92 223.236 204.894 222.963 204.884 222.688 L 204.884 222.488 L 204.884 222.158 C 204.815 221.163 205.56 220.298 206.554 220.218 L 206.664 220.218 C 207.538 220.214 208.289 220.838 208.444 221.698 C 208.444 221.698 208.444 221.838 208.504 222.048 C 208.504 222.048 208.504 222.178 208.504 222.298 C 208.532 222.477 208.572 222.654 208.624 222.828 C 208.714 223.158 208.844 223.558 209.014 224.008 C 209.208 224.49 209.435 224.958 209.694 225.408 C 210.369 226.514 211.252 227.479 212.294 228.248 C 213.443 229.113 214.773 229.708 216.184 229.988 L 216.604 230.048 C 216.805 230.088 217.009 230.114 217.214 230.128 L 217.894 230.128 L 218.294 230.128 C 218.969 230.098 219.64 229.998 220.294 229.828 C 221.433 229.535 222.503 229.022 223.444 228.318 C 223.644 228.158 223.834 228.008 224.014 227.838 L 222.014 225.838 C 221.236 225.059 221.594 223.73 222.658 223.446 C 222.774 223.415 222.894 223.399 223.014 223.398 L 231.854 223.398 C 232.652 223.392 233.3 224.04 233.294 224.838 L 233.294 233.668 C 233.289 234.459 232.645 235.098 231.854 235.098 C 231.478 235.097 231.118 234.946 230.854 234.678 L 228.714 232.528 C 228.173 232.954 227.605 233.344 227.014 233.698 C 225.3 234.717 223.405 235.397 221.434 235.698 C 220.755 235.787 220.069 235.824 219.384 235.808 Z" style="stroke-width: 1; paint-order: stroke;" fill="#fff"></path>
      <path d="M 206.664 220.718 C 207.296 220.717 207.838 221.167 207.954 221.788 C 207.954 221.788 207.954 221.908 208.014 222.118 C 208.074 222.328 208.104 222.678 208.204 222.978 C 208.304 223.278 208.424 223.698 208.594 224.168 C 208.792 224.677 209.026 225.172 209.294 225.648 C 209.987 226.813 210.901 227.833 211.984 228.648 C 213.193 229.556 214.591 230.181 216.074 230.478 C 216.314 230.478 216.934 230.628 217.204 230.628 C 217.394 230.628 217.604 230.628 217.824 230.628 L 218.294 230.628 C 219.003 230.595 219.707 230.488 220.394 230.308 C 221.593 229.984 222.717 229.431 223.704 228.678 C 224.059 228.413 224.393 228.122 224.704 227.808 L 222.364 225.468 C 221.856 224.963 222.084 224.098 222.775 223.91 C 222.853 223.889 222.933 223.878 223.014 223.878 L 231.854 223.878 C 232.364 223.883 232.774 224.298 232.774 224.808 L 232.774 233.638 C 232.774 234.155 232.352 234.573 231.834 234.568 C 231.6 234.569 231.374 234.479 231.204 234.318 L 228.744 231.848 L 228.654 231.928 C 228.055 232.436 227.42 232.901 226.754 233.318 C 225.095 234.287 223.265 234.929 221.364 235.208 C 220.702 235.306 220.033 235.353 219.364 235.348 C 218.964 235.348 218.554 235.348 218.154 235.348 C 217.596 235.303 217.042 235.223 216.494 235.108 C 215.978 235.004 215.467 234.874 214.964 234.718 C 212.953 234.066 211.112 232.977 209.574 231.528 C 208.273 230.28 207.224 228.792 206.484 227.148 C 206.204 226.497 205.967 225.829 205.774 225.148 C 205.634 224.538 205.514 223.998 205.454 223.518 C 205.406 223.186 205.376 222.853 205.364 222.518 L 205.364 222.188 C 205.318 221.462 205.868 220.836 206.594 220.788 L 206.664 220.788 M 206.664 219.788 L 206.524 219.788 C 205.247 219.863 204.274 220.961 204.354 222.238 L 204.354 222.608 C 204.354 222.658 204.354 222.718 204.354 222.778 C 204.366 223.076 204.396 223.373 204.444 223.668 C 204.504 224.158 204.634 224.728 204.774 225.368 C 204.978 226.09 205.228 226.798 205.524 227.488 C 206.319 229.256 207.446 230.855 208.844 232.198 C 210.492 233.749 212.462 234.917 214.614 235.618 L 214.674 235.618 L 215.294 235.748 C 215.652 235.857 216.016 235.944 216.384 236.008 C 216.958 236.127 217.539 236.211 218.124 236.258 C 218.594 236.258 219.024 236.258 219.434 236.258 C 220.147 236.263 220.859 236.213 221.564 236.108 C 223.588 235.814 225.536 235.135 227.304 234.108 C 227.784 233.815 228.254 233.498 228.714 233.158 L 230.544 234.998 C 230.903 235.362 231.393 235.568 231.904 235.568 C 232.972 235.568 233.839 234.705 233.844 233.638 L 233.844 224.838 C 233.844 223.776 232.986 222.913 231.924 222.908 L 223.034 222.908 C 221.548 222.907 220.619 224.515 221.362 225.802 C 221.447 225.951 221.552 226.087 221.674 226.208 L 223.274 227.808 L 223.134 227.918 C 222.241 228.598 221.221 229.095 220.134 229.378 C 219.519 229.539 218.889 229.636 218.254 229.668 L 217.894 229.668 C 217.714 229.668 217.534 229.668 217.374 229.668 L 217.194 229.668 L 216.694 229.588 L 216.294 229.488 C 214.975 229.215 213.733 228.655 212.654 227.848 C 211.672 227.108 210.843 226.184 210.214 225.128 C 209.966 224.697 209.749 224.249 209.564 223.788 C 209.444 223.468 209.294 223.028 209.214 222.718 L 209.214 222.648 C 209.171 222.497 209.138 222.343 209.114 222.188 C 209.114 222.088 209.114 221.998 209.064 221.918 C 209.014 221.838 209.014 221.628 209.004 221.568 C 208.784 220.46 207.792 219.677 206.664 219.718 L 206.664 219.788 Z" style="stroke-width: 1; paint-order: stroke; fill: rgb(85, 101, 238);"></path>
      <path d="M 231.924 220.428 C 231.052 220.428 230.303 219.806 230.144 218.948 L 230.044 218.408 C 230.016 218.208 229.973 218.011 229.914 217.818 C 229.824 217.488 229.694 217.088 229.524 216.638 C 229.326 216.158 229.099 215.69 228.844 215.238 C 228.184 214.136 227.318 213.172 226.294 212.398 C 225.142 211.531 223.809 210.936 222.394 210.658 L 221.994 210.598 C 221.789 210.558 221.582 210.531 221.374 210.518 L 220.704 210.518 L 220.294 210.518 C 219.619 210.549 218.949 210.65 218.294 210.818 C 217.161 211.114 216.096 211.623 215.154 212.318 C 214.964 212.468 214.784 212.618 214.604 212.788 L 216.604 214.788 C 217.382 215.567 217.024 216.896 215.96 217.18 C 215.844 217.211 215.724 217.227 215.604 217.228 L 206.734 217.228 C 205.944 217.233 205.3 216.598 205.294 215.808 L 205.294 206.978 C 205.303 205.877 206.501 205.199 207.45 205.758 C 207.553 205.819 207.649 205.893 207.734 205.978 L 209.904 208.118 C 210.446 207.69 211.014 207.296 211.604 206.938 C 213.315 205.92 215.206 205.241 217.174 204.938 C 217.836 204.838 218.505 204.788 219.174 204.788 C 219.584 204.788 220.004 204.788 220.414 204.788 C 221.002 204.833 221.587 204.917 222.164 205.038 C 222.502 205.101 222.836 205.184 223.164 205.288 L 223.694 205.438 C 225.786 206.113 227.702 207.243 229.304 208.748 C 230.651 210.043 231.737 211.584 232.504 213.288 C 232.824 213.989 233.088 214.715 233.294 215.458 C 233.442 216.014 233.555 216.578 233.634 217.148 C 233.677 217.419 233.704 217.693 233.714 217.968 L 233.714 218.148 C 233.714 218.398 233.714 218.518 233.714 218.518 C 233.765 219.507 233.012 220.354 232.024 220.418 L 231.924 220.418 L 231.924 220.428 Z" style="paint-order: stroke; stroke-opacity: 0; stroke-width: 0px;" fill="#fff"></path>
      <path d="M 219.214 205.318 C 219.614 205.318 220.024 205.318 220.424 205.318 C 220.985 205.362 221.543 205.442 222.094 205.558 C 222.61 205.662 223.121 205.792 223.624 205.948 C 225.635 206.599 227.476 207.689 229.014 209.138 C 230.315 210.386 231.364 211.873 232.104 213.518 C 232.386 214.166 232.62 214.835 232.804 215.518 C 232.946 216.051 233.056 216.592 233.134 217.138 C 233.182 217.469 233.212 217.803 233.224 218.138 C 233.224 218.358 233.224 218.468 233.224 218.468 C 233.275 219.192 232.728 219.82 232.004 219.868 L 231.904 219.868 C 231.277 219.86 230.743 219.413 230.624 218.798 C 230.624 218.798 230.624 218.678 230.564 218.468 C 230.523 218.178 230.463 217.89 230.384 217.608 C 230.294 217.318 230.184 216.948 230.014 216.478 C 229.805 215.97 229.565 215.476 229.294 214.998 C 228.598 213.834 227.685 212.816 226.604 211.998 C 225.392 211.088 223.991 210.463 222.504 210.168 C 222.274 210.168 221.654 210.018 221.384 210.018 C 221.194 210.018 220.984 210.018 220.764 210.018 L 220.294 210.018 C 219.582 210.051 218.874 210.159 218.184 210.338 C 216.987 210.666 215.864 211.219 214.874 211.968 C 214.523 212.234 214.189 212.521 213.874 212.828 L 216.214 215.178 C 216.722 215.682 216.494 216.547 215.803 216.735 C 215.722 216.757 215.638 216.768 215.554 216.768 L 206.734 216.768 C 206.22 216.768 205.804 216.351 205.804 215.838 L 205.804 206.978 C 205.792 206.262 206.56 205.802 207.186 206.15 C 207.266 206.195 207.34 206.251 207.404 206.318 L 209.864 208.788 L 209.954 208.708 C 210.553 208.2 211.188 207.735 211.854 207.318 C 213.509 206.348 215.336 205.707 217.234 205.428 C 217.896 205.33 218.565 205.283 219.234 205.288 M 219.234 204.288 C 218.521 204.284 217.809 204.334 217.104 204.438 C 215.084 204.733 213.139 205.412 211.374 206.438 C 210.894 206.731 210.424 207.048 209.964 207.388 L 208.114 205.608 C 207.068 204.553 205.272 205.027 204.882 206.46 C 204.836 206.629 204.813 206.803 204.814 206.978 L 204.814 215.808 C 204.814 216.874 205.678 217.738 206.744 217.738 L 215.574 217.738 C 217.06 217.746 217.997 216.143 217.261 214.852 C 217.175 214.7 217.068 214.561 216.944 214.438 L 215.294 212.848 L 215.434 212.738 C 216.327 212.078 217.339 211.595 218.414 211.318 C 219.028 211.148 219.658 211.04 220.294 210.998 L 220.694 210.998 L 221.224 210.998 L 221.404 210.998 L 221.904 211.078 L 222.334 211.148 C 223.658 211.414 224.906 211.974 225.984 212.788 C 226.965 213.529 227.793 214.453 228.424 215.508 C 228.667 215.938 228.884 216.382 229.074 216.838 C 229.204 217.188 229.354 217.618 229.424 217.908 L 229.424 217.978 C 229.473 218.145 229.509 218.315 229.534 218.488 L 229.534 218.718 L 229.584 219.018 C 229.782 220.118 230.736 220.921 231.854 220.928 L 232.094 220.928 C 233.352 220.837 234.307 219.758 234.244 218.498 C 234.244 218.438 234.244 218.308 234.244 218.118 C 234.244 217.928 234.244 218.008 234.244 217.948 C 234.232 217.65 234.202 217.352 234.154 217.058 C 234.071 216.485 233.954 215.917 233.804 215.358 C 233.608 214.62 233.358 213.898 233.054 213.198 C 232.259 211.43 231.132 209.831 229.734 208.488 C 228.086 206.936 226.116 205.769 223.964 205.068 L 223.904 205.068 L 223.384 204.928 C 223.027 204.809 222.663 204.712 222.294 204.638 C 221.717 204.518 221.132 204.434 220.544 204.388 C 220.074 204.388 219.644 204.388 219.244 204.388 L 219.234 204.288 Z" style="stroke-width: 1; paint-order: stroke; fill: rgb(85, 101, 238);"></path>
    </g>
  </g>
</svg>