<svg xmlns="http://www.w3.org/2000/svg" viewBox="0 0 40 40">
  <g transform="matrix(1, 0, 0, 1, 0, 0.7275)">
    <path d="M 24.505 0.773 L 24.785 0.775 C 33.131 0.925 39.849 7.667 39.997 15.995 L 40 16.277 L 39.997 16.557 C 39.867 23.774 34.809 29.775 28.057 31.362 C 25.299 35.163 20.858 37.662 15.832 37.769 L 15.497 37.772 L 15.216 37.77 C 6.776 37.617 0 30.727 0 22.272 C 0 14.936 5.098 8.789 11.944 7.183 C 14.7 3.383 19.139 0.883 24.169 0.776 L 24.505 0.773 Z" id="Path" stroke-width="1" fill-rule="nonzero" style="fill: rgb(85, 101, 238); stroke-width: 0.833;"></path>
    <path d="M 15.497 7.774 L 15.772 7.776 C 23.662 7.918 30 14.365 30 22.273 L 29.997 22.544 C 29.856 30.435 23.409 36.773 15.501 36.773 L 15.23 36.771 C 7.338 36.629 1 30.182 1 22.273 C 1 14.265 7.493 7.774 15.497 7.774 Z M 15.501 26.675 C 12.383 26.684 10.444 30.065 12.011 32.76 C 12.669 33.892 13.833 34.636 15.137 34.758 L 15.32 34.769 L 15.501 34.773 L 15.686 34.769 C 17.708 34.676 19.351 33.105 19.533 31.088 L 19.545 30.905 L 19.549 30.724 L 19.545 30.539 C 19.452 28.517 17.881 26.873 15.864 26.691 L 15.681 26.678 L 15.501 26.675 Z M 24.498 1.773 L 24.772 1.776 C 32.662 1.918 39 8.365 39 16.274 L 38.997 16.544 C 38.882 22.911 34.663 28.268 28.882 30.099 C 30.225 27.809 30.953 25.212 30.997 22.558 L 31 22.278 C 31 21.539 30.948 20.814 30.848 20.103 L 30.785 19.696 C 31.312 20.03 31.909 20.238 32.529 20.302 L 32.77 20.319 L 32.95 20.324 L 33.136 20.319 C 35.159 20.227 36.802 18.654 36.984 16.638 L 36.996 16.454 L 37 16.274 L 36.996 16.088 C 36.902 14.066 35.33 12.423 33.314 12.241 L 33.131 12.229 L 32.95 12.224 C 31.241 12.225 29.717 13.297 29.139 14.905 L 29.149 14.924 C 28.44 13.611 27.547 12.407 26.495 11.349 C 27.646 10.696 28.406 9.524 28.531 8.207 L 28.545 8.004 L 28.549 7.824 L 28.545 7.638 C 28.452 5.615 26.881 3.972 24.864 3.789 L 24.681 3.778 L 24.5 3.774 C 22.357 3.774 20.585 5.443 20.458 7.583 L 20.111 7.471 C 18.709 7.035 17.252 6.801 15.784 6.776 L 15.5 6.774 C 14.798 6.774 14.106 6.82 13.428 6.911 C 16.118 3.722 20.055 1.85 24.227 1.776 L 24.497 1.773 L 24.498 1.773 Z M 23.95 18.224 C 20.833 18.212 18.872 21.579 20.42 24.285 C 21.08 25.438 22.263 26.194 23.587 26.308 L 23.77 26.319 L 23.95 26.323 L 24.136 26.319 C 26.159 26.227 27.802 24.654 27.984 22.638 L 27.996 22.454 L 28 22.273 L 27.996 22.088 C 27.902 20.066 26.33 18.423 24.314 18.241 L 24.131 18.229 L 23.95 18.224 Z M 7.05 18.224 C 3.932 18.227 1.986 21.603 3.547 24.302 C 4.205 25.44 5.376 26.188 6.686 26.308 L 6.869 26.319 L 7.05 26.323 L 7.235 26.319 C 9.257 26.226 10.901 24.654 11.083 22.638 L 11.094 22.454 L 11.098 22.273 L 11.094 22.088 C 11.001 20.066 9.429 18.423 7.413 18.241 L 7.23 18.229 L 7.05 18.224 Z M 15.488 19.457 C 15.134 19.457 14.834 19.722 14.79 20.074 L 14.785 20.161 L 14.785 21.548 L 13.365 21.549 L 13.277 21.555 C 12.993 21.591 12.759 21.795 12.685 22.072 L 12.667 22.165 L 12.662 22.253 L 12.667 22.342 C 12.702 22.626 12.907 22.86 13.183 22.933 L 13.277 22.952 L 13.365 22.957 L 14.785 22.957 L 14.785 24.387 L 14.79 24.475 C 14.826 24.759 15.03 24.993 15.307 25.067 L 15.4 25.085 L 15.488 25.09 L 15.577 25.085 C 15.861 25.05 16.096 24.845 16.17 24.568 L 16.188 24.475 L 16.193 24.387 L 16.193 22.957 L 17.613 22.957 L 17.701 22.952 C 17.985 22.916 18.219 22.712 18.293 22.435 L 18.311 22.342 L 18.317 22.253 L 18.311 22.165 C 18.275 21.881 18.071 21.647 17.794 21.573 L 17.701 21.555 L 17.613 21.549 L 16.193 21.549 L 16.193 20.161 L 16.188 20.073 C 16.151 19.789 15.947 19.555 15.671 19.48 L 15.577 19.462 L 15.488 19.457 Z M 15.501 9.774 C 12.383 9.776 10.437 13.152 11.998 15.851 C 12.656 16.99 13.827 17.738 15.137 17.857 L 15.32 17.869 L 15.501 17.872 L 15.686 17.868 C 17.708 17.775 19.351 16.203 19.533 14.187 L 19.545 14.004 L 19.549 13.824 L 19.545 13.638 C 19.452 11.615 17.881 9.972 15.864 9.789 L 15.681 9.778 L 15.501 9.774 Z" id="Shape" stroke-width="1" fill-rule="nonzero" fill="#FFF" style="stroke-width: 0.833;"></path>
  </g>
</svg>