<svg xmlns="http://www.w3.org/2000/svg" viewBox="0 0 40 40">
  <g id="object-0" transform="matrix(1, 0, 0, 1, -1.953504, 0.979283)">
    <g>
      <path d="M 5.696 20.048 C 5.696 11.014 13.022 3.691 22.053 3.691 C 31.084 3.691 38.409 11.014 38.409 20.048 C 38.409 29.084 31.084 36.404 22.053 36.404 C 13.022 36.404 5.696 29.084 5.696 20.048 Z" id="path-1" style="fill: rgb(85, 101, 238); transform-origin: 22.053px 20.048px;" stroke-width="1" fill-rule="evenodd" transform="matrix(-1, 0, 0, -1, 0.000002, 0)"></path>
      <path d="M 22.052 35.294 C 30.342 35.294 37.11 28.633 37.29 20.386 L 37.293 20.05 C 37.293 11.759 30.638 4.992 22.385 4.811 L 22.052 4.808 C 13.651 4.808 6.808 11.646 6.808 20.05 C 6.808 28.345 13.467 35.108 21.715 35.288 L 22.052 35.294 Z M 22.052 15.402 C 18.759 15.41 16.692 11.851 18.33 8.997 C 19.021 7.799 20.244 7.006 21.617 6.87 L 21.839 6.861 L 22.052 6.853 L 22.27 6.861 C 24.379 6.966 26.093 8.596 26.303 10.696 L 26.322 10.914 L 26.327 11.129 L 26.322 11.347 C 26.212 13.454 24.582 15.17 22.481 15.384 L 22.264 15.399 L 22.052 15.402 Z M 30.973 24.323 C 27.683 24.312 25.641 20.739 27.293 17.897 C 27.976 16.717 29.188 15.938 30.544 15.798 L 30.762 15.78 L 30.973 15.774 L 31.193 15.78 C 33.303 15.89 35.011 17.52 35.229 19.618 L 35.24 19.837 L 35.248 20.05 L 35.24 20.273 C 35.135 22.377 33.505 24.088 31.403 24.306 L 31.188 24.323 L 30.973 24.323 Z M 13.128 24.323 C 9.836 24.312 7.794 20.739 9.445 17.897 C 10.135 16.723 11.343 15.938 12.701 15.798 L 12.916 15.78 L 13.128 15.774 L 13.349 15.78 C 15.456 15.89 17.169 17.52 17.38 19.618 L 17.398 19.837 L 17.404 20.05 L 17.398 20.273 C 17.291 22.377 15.658 24.088 13.56 24.306 L 13.345 24.323 L 13.128 24.323 Z M 22.043 23.021 C 21.667 23.021 21.351 22.749 21.303 22.38 L 21.295 22.278 L 21.295 20.815 L 19.799 20.815 L 19.686 20.809 C 19.4 20.767 19.166 20.559 19.083 20.279 L 19.064 20.171 L 19.053 20.072 L 19.064 19.96 C 19.107 19.675 19.315 19.438 19.595 19.355 L 19.697 19.333 L 19.799 19.327 L 21.295 19.327 L 21.295 17.816 L 21.306 17.709 C 21.349 17.423 21.553 17.186 21.828 17.105 L 21.939 17.085 L 22.043 17.076 L 22.148 17.085 C 22.436 17.129 22.674 17.336 22.755 17.612 L 22.774 17.717 L 22.784 17.816 L 22.784 19.327 L 24.285 19.327 L 24.393 19.338 C 24.678 19.378 24.913 19.584 24.994 19.864 L 25.015 19.971 L 25.026 20.072 L 25.015 20.182 C 24.972 20.47 24.765 20.707 24.489 20.785 L 24.385 20.809 L 24.285 20.815 L 22.784 20.815 L 22.784 22.278 L 22.774 22.391 C 22.733 22.679 22.526 22.911 22.246 22.995 L 22.14 23.018 L 22.043 23.021 Z M 22.052 33.252 C 18.759 33.257 16.692 29.7 18.33 26.847 C 19.021 25.648 20.244 24.856 21.617 24.721 L 21.839 24.703 L 22.052 24.698 L 22.27 24.703 C 24.379 24.811 26.093 26.443 26.303 28.545 L 26.322 28.757 L 26.327 28.973 L 26.322 29.191 C 26.212 31.301 24.582 33.015 22.481 33.23 L 22.264 33.243 L 22.052 33.252 Z" id="Shape" style="transform-origin: 22.052px 20.05px;" stroke-width="1" fill-rule="evenodd" fill="#FFF" transform="matrix(-1, 0, 0, -1, 0.000002, 0)"></path>
      <g id="Icon/Essential/move-right" stroke-width="1" fill-rule="nonzero" transform="matrix(0.760129, 0, 0, 0.760129, 22.053501, 20.048973)" style=""></g>
    </g>
  </g>
</svg>